<svg width="74" height="51" viewBox="0 0 74 51" fill="none" xmlns="http://www.w3.org/2000/svg">
<path fill-rule="evenodd" clip-rule="evenodd" d="M55.196 24.1103L62.8388 50.6666H73.4209L60.5826 13.1992L55.196 24.1103ZM60.4009 21.3002L68.1666 47.2083H65.0904L58.9584 24.2223L60.4009 21.3002Z" fill="white"/>
<path fill-rule="evenodd" clip-rule="evenodd" d="M12.6874 26.8082L0.333313 50.6666H38.6999L59.1875 10.3331H50.2342C50.2434 10.0869 50.2481 9.84012 50.2481 9.59273C50.2481 7.64647 49.2256 5.84721 47.564 4.86953L41.7275 1.43542C39.6065 0.187419 36.9875 0.187417 34.8665 1.43541L29.0299 4.86954C27.3683 5.8472 26.3459 7.64643 26.3459 9.59268C26.3459 9.84009 26.3505 10.0869 26.3597 10.3331H20.8209L18.2599 15.5205H12.6874V26.8082ZM40.0122 4.42572L45.8487 7.85983C46.4583 8.21853 46.8335 8.87866 46.8335 9.59272C46.8335 9.84026 46.8278 10.0871 46.8166 10.3331C46.7629 11.5118 46.5814 12.6708 46.2811 13.7912C45.3946 17.0999 43.4718 20.0729 40.7461 22.2288L38.2962 24.1665L35.8464 22.2288C33.1207 20.0729 31.1986 17.1 30.312 13.7914C30.0118 12.6709 29.831 11.5119 29.7773 10.3331C29.7661 10.0871 29.7604 9.84024 29.7604 9.5927C29.7605 8.87865 30.1356 8.21853 30.7452 7.85984L36.5817 4.42572C37.6422 3.80172 38.9517 3.80172 40.0122 4.42572Z" fill="white"/>
</svg>
