<svg width="204" height="130" viewBox="0 0 204 130" fill="none" xmlns="http://www.w3.org/2000/svg">
<path d="M132.207 23.6771C132.625 23.6704 132.986 23.903 133.288 24.375" stroke="#52AE42" stroke-width="2"/>
<path d="M136.402 26.2344L139.041 27.5646" stroke="#52AE42" stroke-width="2"/>
<path d="M156.81 38.5364C157.552 38.7195 158.287 39.1486 159.013 39.8238" stroke="#52AE42" stroke-width="2"/>
<path d="M161.032 40.8669C161.145 41.0164 161.279 41.1709 161.435 41.3305C161.563 41.4598 161.728 41.5715 161.93 41.6656C162.664 42.0065 163.349 42.4088 163.985 42.8724" stroke="#52AE42" stroke-width="2"/>
<path d="M60.5777 63.375C60.3958 64.0871 60.3601 64.8379 60.4706 65.6273" stroke="#52AE42" stroke-width="2"/>
<path d="M60.4655 70.704C59.7583 70.5142 58.8556 70.41 57.7574 70.3916C56.2911 70.3664 55.3833 69.409 55.0161 68.0359C54.7135 66.9123 54.4551 65.719 54.2409 64.4559C54.1967 64.1939 54.0488 64.0326 53.7972 63.9722C53.6578 63.9386 53.6068 63.8529 53.6442 63.7152C53.7207 63.4414 53.7377 63.15 53.6952 62.841C53.668 62.6428 53.7556 62.5504 53.9579 62.5639C54.6277 62.6075 55.3748 62.4622 56.1993 62.128C56.8215 61.8761 57.0187 61.3646 56.7909 60.5937C56.7144 60.335 56.5419 60.2326 56.2733 60.2863C55.1394 60.5114 54.1015 60.7869 53.1597 61.1127C52.8656 61.2135 52.7296 61.4175 52.7517 61.7249C52.7925 62.2892 52.5987 63.0249 53.0628 63.4431C53.1359 63.5086 53.1563 63.5876 53.124 63.6799C53.0832 63.8025 53.0645 63.9277 53.0679 64.0553C53.0951 65.5334 53.2575 67.0257 53.555 68.5323C53.7267 69.4056 54.0633 70.2144 54.5648 70.9584C55.0629 71.6924 55.6026 72.3869 56.184 73.042C56.1993 73.0588 56.66 73.4996 57.5661 74.3646C58.1016 74.8752 58.5207 75.385 58.8233 75.8939C59.6699 77.3182 60.0473 78.8533 59.9555 80.4993" stroke="#52AE42" stroke-width="2"/>
<path d="M132.207 23.6771C132.626 23.6704 132.986 23.903 133.289 24.375C133.47 24.6353 133.679 24.836 133.913 24.9771C134.292 25.2022 134.525 25.3542 134.612 25.4331C134.85 25.6515 135.091 25.8639 135.336 26.0705C135.573 26.2704 135.928 26.325 136.402 26.2343L139.041 27.5645C138.817 27.6821 138.802 27.8316 138.995 28.013C139.172 28.1776 139.366 28.3212 139.577 28.4438C141.678 29.6648 143.768 30.8884 145.847 32.1145C147.604 33.1475 149.922 34.7271 152.049 35.8961C152.499 36.1447 153.279 36.6066 154.387 37.2818C155.186 37.7688 155.994 38.1871 156.81 38.5364C157.553 38.7195 158.287 39.1486 159.013 39.8238C159.564 40.6082 160.237 40.9559 161.033 40.8669C161.145 41.0163 161.279 41.1709 161.435 41.3304C161.563 41.4597 161.728 41.5714 161.93 41.6655C162.665 42.0065 163.35 42.4087 163.985 42.8723C164.237 43.1074 164.81 43.4845 165.704 44.0035C165.985 44.1647 166.136 44.4822 166.158 44.9558C166.214 46.0946 166.227 47.1485 166.196 48.1176C166.194 48.1825 166.167 48.244 166.12 48.2891C166.073 48.3343 166.01 48.3595 165.944 48.3595L147.354 48.4099C147.137 48.4099 147.015 48.3041 146.99 48.0924C146.832 46.7773 147.576 45.694 146.118 44.8248C141.839 42.2718 137.704 39.8322 133.714 37.506C132.507 36.8022 131.316 36.0456 130.139 35.236C128.393 34.0368 126.414 33.1223 124.555 31.9986C120.167 29.3499 115.9 26.718 111.754 24.1029C109.408 22.6232 106.993 21.2115 104.509 19.8678C103.78 19.4723 102.834 19.9056 102.148 20.3087C98.3995 22.5006 94.6357 24.9066 90.9356 27.1035C86.3388 29.8311 81.8559 32.5008 77.4869 35.1126C73.4962 37.4959 69.0337 39.975 65.5376 42.2878C63.8257 43.4215 62.1538 44.42 60.5218 45.2833C60.1274 45.4933 59.9472 45.7922 59.9812 46.1802C60.0339 46.763 60.0815 47.3383 60.124 47.906C60.1295 47.9898 60.1032 48.0725 60.0503 48.1378C59.9974 48.2032 59.9218 48.2463 59.8384 48.2587C58.8949 48.4023 57.9361 48.5081 56.9696 48.5081C51.6835 48.5056 46.3693 48.5182 41.0704 48.3771C41.0292 48.376 40.9897 48.3597 40.9597 48.3314C40.9296 48.3031 40.9109 48.2646 40.9072 48.2234C40.8205 47.1183 40.8103 46.0845 40.8766 45.1221C40.9021 44.766 41.0857 44.4847 41.4274 44.2781C49.6724 39.3099 58.5115 34.0066 67.9448 28.3682C79.328 21.5659 91.098 14.494 103.255 7.1525C103.53 6.98622 103.832 6.97866 104.16 7.12983C105.284 7.64378 106.367 8.22912 107.411 8.88584C110.046 10.5469 112.684 12.2039 115.324 13.8566C116.437 14.5536 117.548 15.1759 118.657 15.7234C118.709 15.7487 118.767 15.7606 118.825 15.7579C118.883 15.7552 118.939 15.738 118.988 15.708C119.037 15.678 119.078 15.6362 119.106 15.5864C119.134 15.5366 119.149 15.4806 119.149 15.4236L119.136 3.52459C119.136 3.42838 119.175 3.3361 119.243 3.26806C119.311 3.20003 119.404 3.1618 119.501 3.1618L129.094 3.11646C129.206 3.11645 129.313 3.16017 129.392 3.23806C129.472 3.31594 129.516 3.42167 129.517 3.53215C129.556 9.63913 129.593 15.7679 129.627 21.9186C129.627 22.0798 129.744 22.2713 129.979 22.493C130.662 23.1346 131.405 23.5293 132.207 23.6771Z" fill="#6FBE44"/>
<path d="M163.985 42.8722C163.35 42.4087 162.664 42.0064 161.93 41.6654C161.728 41.5714 161.563 41.4597 161.435 41.3304C161.279 41.1708 161.145 41.0163 161.032 40.8668C161.06 40.4351 161.092 39.4207 161.129 37.8234C161.16 36.599 160.515 36.672 159.803 36.1001C157.794 34.4827 155.825 32.3992 154.612 30.0486C154.484 29.8034 154.295 29.737 154.045 29.8496C153.962 29.8872 153.891 29.9491 153.844 30.027C153.796 30.1049 153.774 30.195 153.78 30.2854C153.801 30.6129 153.896 30.9102 154.066 31.1773C155.445 33.359 157.457 35.1503 159.334 37.0021C159.553 37.2171 159.782 37.4119 160.02 37.5866C161.048 38.3399 160.158 39.0755 159.4 39.3879C159.3 39.4299 159.171 39.5752 159.013 39.8238C158.287 39.1486 157.553 38.7195 156.81 38.5364C157.082 38.0039 157.099 37.5563 156.861 37.1935C156.091 36.022 155.596 35.3368 154.237 34.4777C153.298 33.8856 152.041 33.936 150.965 33.6614C150.26 33.4817 149.65 33.1012 149.137 32.5201C149.054 32.427 149.005 32.3092 148.996 32.185C148.964 31.7601 148.991 31.3671 149.078 31.0059C149.518 29.1567 150.456 27.0295 151.891 24.6244C152.09 24.2884 152.2 23.9374 152.222 23.5713C152.224 23.5442 152.22 23.5172 152.21 23.492C152.199 23.4668 152.184 23.4442 152.164 23.4257C152.144 23.4071 152.12 23.3932 152.094 23.3848C152.068 23.3765 152.04 23.3739 152.013 23.3773C151.507 23.4377 151.001 23.5074 150.496 23.5864C148.42 23.9089 147.224 22.5459 145.947 21.2484C145.899 21.2001 145.842 21.1627 145.778 21.1386C145.715 21.1145 145.646 21.1044 145.578 21.109C145.511 21.1135 145.444 21.1327 145.385 21.165C145.325 21.1973 145.273 21.2421 145.233 21.2963C143.386 23.782 141.323 25.8715 139.041 27.5645L136.402 26.2342C136.805 25.8076 136.782 25.4482 136.333 25.1559C135.362 24.5244 134.348 24.2641 133.288 24.3749C132.986 23.903 132.625 23.6704 132.207 23.6771C132.549 22.7247 133.149 22.0319 134.008 21.5986C134.04 21.5826 134.076 21.5763 134.112 21.5806C134.148 21.5848 134.182 21.5994 134.209 21.6225C134.237 21.6457 134.257 21.6763 134.266 21.7105C134.276 21.7448 134.276 21.7812 134.265 21.8152L133.997 22.6441C133.968 22.7348 133.966 22.8255 133.99 22.9162C134.122 23.4285 134.472 23.7569 135.038 23.9013C136.076 24.1658 137.134 24.2389 138.07 24.7705C138.155 24.8192 138.237 24.815 138.317 24.7579C139.847 23.6544 141.176 21.4701 141.969 19.5957C142.195 19.0616 142.433 18.5014 142.683 17.9152C142.74 17.7792 142.749 17.6373 142.708 17.4895C142.682 17.3989 142.622 17.3218 142.54 17.2747C142.457 17.2277 142.359 17.2143 142.267 17.2375C141.179 17.5113 140.306 17.2417 139.648 16.4288C138.353 14.8265 137.94 12.3474 139.725 10.9441C141.494 9.55091 143.32 11.4808 144.065 12.9193C144.274 13.3224 144.73 13.4786 145.151 13.534C149.073 14.053 153.293 15.1389 156.203 17.56C158.052 19.0994 159.793 21.5734 160.265 23.9542C160.443 24.8511 159.775 25.0375 159.189 25.4154C159.099 25.4725 159.051 25.5532 159.046 25.6573C159.018 26.1889 159.232 26.7003 159.27 27.2344C159.4 29.0786 159.61 30.8749 160.78 32.384C161.538 33.3616 162.241 34.266 162.889 35.0974C163.754 36.2059 164.211 37.3019 164.261 38.3852C164.307 39.3426 164.335 40.2722 164.345 41.1742C164.353 41.7662 164.179 42.3079 163.985 42.8722Z" fill="#349D3F"/>
<path d="M60.5777 63.375C60.3958 64.0871 60.3601 64.8379 60.4706 65.6273C60.3499 67.3522 60.3482 69.0444 60.4655 70.7039C59.7583 70.5141 58.8556 70.4099 57.7574 70.3915C56.2912 70.3663 55.3834 69.4089 55.0162 68.0358C54.7136 66.9122 54.4552 65.7189 54.241 64.4558C54.1968 64.1938 54.0489 64.0325 53.7973 63.9721C53.6579 63.9385 53.6069 63.8528 53.6443 63.7151C53.7208 63.4413 53.7378 63.1499 53.6953 62.8409C53.6681 62.6427 53.7556 62.5503 53.9579 62.5638C54.6277 62.6074 55.3749 62.4621 56.1994 62.1279C56.8216 61.876 57.0188 61.3645 56.791 60.5936C56.7145 60.3349 56.5419 60.2325 56.2733 60.2862C55.1394 60.5113 54.1016 60.7867 53.1598 61.1126C52.8657 61.2134 52.7297 61.4174 52.7518 61.7248C52.7926 62.2891 52.5988 63.0248 53.0629 63.443C53.136 63.5085 53.1564 63.5875 53.1241 63.6798C53.0833 63.8024 53.0646 63.9276 53.068 64.0552C53.0952 65.5333 53.2575 67.0256 53.555 68.5322C53.7267 69.4055 54.0633 70.2143 54.5648 70.9583C55.0629 71.6923 55.6027 72.3868 56.1841 73.0419C56.1994 73.0587 56.6601 73.4995 57.5662 74.3645C58.1017 74.8751 58.5207 75.3849 58.8233 75.8938C59.6699 77.3181 60.0473 78.8532 59.9555 80.4992C55.4879 80.4757 51.0824 80.4933 46.7389 80.5521C44.9437 80.5748 43.1255 80.4866 41.3456 80.4287C41.1212 80.422 41.0065 80.3069 41.0014 80.0835C40.9725 78.8154 40.9538 77.6112 40.9453 76.4707C40.896 69.1662 40.89 61.4611 40.9274 53.3554C40.9325 52.4308 40.8458 51.5087 40.8433 50.6093C40.843 50.5607 40.8531 50.5127 40.8728 50.4682C40.8926 50.4238 40.9215 50.3839 40.9578 50.3511C40.994 50.3184 41.0369 50.2935 41.0834 50.2781C41.13 50.2626 41.1794 50.257 41.2283 50.2616C41.644 50.2994 42.029 50.3498 42.4523 50.3221C44.7966 50.1726 47.1749 50.1205 49.5872 50.1659C53.1215 50.2339 56.5538 50.1785 60.0397 50.0374C60.0787 50.0357 60.1178 50.0416 60.1545 50.0548C60.1912 50.0679 60.2249 50.0881 60.2536 50.1141C60.2822 50.1401 60.3054 50.1715 60.3216 50.2063C60.3379 50.2411 60.3469 50.2788 60.3482 50.317C60.4604 53.1791 60.5667 56.0369 60.667 58.8905C60.7163 60.3249 60.6865 61.8197 60.5777 63.375Z" fill="#349D3F"/>
<path d="M60.2104 80.6467C60.3022 79.0007 59.9248 77.4655 59.0782 76.0412C58.7756 75.5323 58.3565 75.0226 57.821 74.512C56.9149 73.647 56.4542 73.2061 56.4389 73.1893C55.8575 72.5343 55.3178 71.8398 54.8197 71.1058C54.3182 70.3617 53.9816 69.553 53.8099 68.6796C53.5124 67.173 53.35 65.6807 53.3228 64.2027C53.3194 64.075 53.3381 63.9499 53.3789 63.8273C53.4112 63.7349 53.3908 63.656 53.3177 63.5905C52.8536 63.1723 53.0474 62.4366 53.0066 61.8723C52.9845 61.5649 53.1205 61.3608 53.4146 61.26C54.3564 60.9342 55.3943 60.6587 56.5282 60.4337C56.7968 60.3799 56.9693 60.4824 57.0458 60.7411C57.2736 61.512 57.0764 62.0234 56.4542 62.2754C55.6297 62.6096 54.8826 62.7549 54.2128 62.7112C54.0105 62.6978 53.9229 62.7901 53.9501 62.9883C53.9926 63.2974 53.9756 63.5888 53.8991 63.8626C53.8617 64.0003 53.9127 64.0859 54.0521 64.1195C54.3037 64.18 54.4516 64.3412 54.4958 64.6033C54.71 65.8663 54.9684 67.0597 55.271 68.1833C55.6382 69.5564 56.546 70.5137 58.0123 70.5389C59.1105 70.5574 60.0132 70.6615 60.7204 70.8513C61.2329 71.0856 62.2606 71.6676 62.4416 70.7052C62.6354 69.6639 62.6074 68.594 62.3575 67.4955C62.1866 66.7422 61.3706 66.2131 60.7255 65.7748C60.615 64.9854 60.6507 64.2346 60.8326 63.5224C61.3375 63.1513 61.7616 62.5416 62.105 61.6934C62.2852 61.2483 62.6601 60.8158 63.2296 60.3959C64.7902 59.242 66.3865 60.8393 66.8429 62.2577C67.1659 63.2638 67.3852 64.3648 67.5008 65.5606C67.5289 65.8403 67.5034 66.1048 67.2943 66.3139C66.2284 67.3897 65.8382 68.5587 66.2156 70.1459C66.3822 70.8446 66.6746 71.3224 67.0928 71.5794C67.7507 71.9825 68.5072 72.2874 69.3623 72.494C70.3976 72.7442 71.1737 73.2447 71.6905 73.9955C72.3994 75.0268 72.9833 76.2596 73.4423 77.694C73.9268 79.2131 73.9523 80.8633 73.7687 82.4631C73.7631 82.5129 73.7389 82.5588 73.7009 82.5923C73.6628 82.6257 73.6134 82.6443 73.5622 82.6445C71.2247 82.6445 68.922 82.6655 66.6542 82.7075C64.6168 82.7428 62.5054 82.6093 60.4577 82.5236C60.4214 82.5224 60.3868 82.5078 60.3608 82.4826C60.3348 82.4574 60.3194 82.4235 60.3175 82.3876L60.2104 80.6467Z" fill="#6FBE44"/>
<path d="M95.9845 89.9418C96.3925 89.1541 96.7792 88.3261 97.1447 87.4577C97.8944 85.6816 100.761 87.0773 98.8838 88.9895C98.3203 89.5614 97.6292 89.8159 97.0708 90.3525C96.7104 90.6968 96.2879 90.9412 95.8034 91.0856C95.7786 91.093 95.7522 91.0937 95.7269 91.0877C95.7017 91.0818 95.6785 91.0694 95.6596 91.0518C95.6407 91.0342 95.6269 91.012 95.6195 90.9874C95.612 90.9628 95.6113 90.9367 95.6173 90.9118C95.7057 90.5641 95.8281 90.2408 95.9845 89.9418Z" fill="white"/>
<path d="M152.839 87.6985L151.574 87.7007C150.952 87.7018 150.448 88.2012 150.449 88.8162L150.451 89.6325C150.452 90.2475 150.957 90.7452 151.58 90.7441L152.845 90.7419C153.467 90.7408 153.971 90.2414 153.97 89.6264L153.968 88.8101C153.967 88.1951 153.462 87.6974 152.839 87.6985Z" fill="white"/>
<path d="M33.8895 95.7063C33.6685 95.6878 33.5478 95.7869 33.5274 96.0036C33.354 97.7571 33.3668 99.4224 33.5657 101C33.6473 101.642 34.17 101.843 34.5474 102.297C34.5749 102.329 34.5921 102.369 34.597 102.411C34.6019 102.453 34.5943 102.496 34.575 102.533C34.5558 102.571 34.5258 102.602 34.4887 102.624C34.4516 102.645 34.4091 102.655 34.3664 102.652C33.507 102.612 32.6834 102.294 31.8266 102.289C31.0335 102.284 30.2481 102.556 29.4551 102.682C29.3191 102.704 29.1899 102.7 29.0675 102.67C29.0246 102.659 28.985 102.638 28.9522 102.608C28.9195 102.579 28.8945 102.542 28.8797 102.501C28.8648 102.46 28.8604 102.416 28.8669 102.373C28.8735 102.33 28.8907 102.289 28.917 102.254C29.2536 101.811 29.8631 101.367 29.8988 100.8C29.9906 99.3258 30.0628 97.9175 30.1155 96.5755C30.1852 94.8472 30.1206 92.8728 29.9217 90.6524C29.8784 90.1687 29.9039 89.7933 29.376 89.5943C29.2956 89.5645 29.223 89.5152 29.1644 89.4507C29.0063 89.2743 28.9842 89.1408 29.0981 89.0501C29.1627 88.998 29.2366 88.9829 29.3199 89.0047C29.5341 89.0635 29.7483 89.0837 29.9625 89.0652C31.3582 88.9426 32.782 88.8838 34.2338 88.8888C34.2778 88.8888 34.3209 88.9013 34.3579 88.9248C34.395 88.9483 34.4244 88.9819 34.4427 89.0214C34.4609 89.061 34.4673 89.1049 34.461 89.148C34.4547 89.191 34.436 89.2314 34.4072 89.2642C34.2185 89.4775 33.9898 89.648 33.7212 89.7757C33.6141 89.8261 33.5529 89.91 33.5376 90.0276C33.337 91.598 33.3166 93.239 33.4764 94.9505C33.4816 95.0033 33.4984 95.0544 33.5256 95.1002C33.5528 95.1459 33.5898 95.1853 33.634 95.2155C33.6782 95.2457 33.7285 95.2661 33.7814 95.2751C33.8344 95.2842 33.8887 95.2817 33.9405 95.2679C34.4981 95.1218 35.0948 95.0941 35.7306 95.1848C36.4574 95.2881 37.0974 95.0387 37.791 95.147C38.0953 95.194 38.2492 95.0655 38.2526 94.7615C38.2628 93.7739 38.2619 92.7905 38.25 91.8113C38.2347 90.466 37.7783 90.0981 36.9495 89.1811C36.925 89.1544 36.909 89.1212 36.9035 89.0856C36.8979 89.05 36.9031 89.0136 36.9183 88.9809C36.9335 88.9481 36.9581 88.9205 36.989 88.9015C37.02 88.8824 37.0559 88.8728 37.0923 88.8737C38.7209 88.914 40.4235 88.8838 42.2 88.783C42.3683 88.773 42.5196 88.8057 42.6539 88.8813C42.6817 88.8967 42.7058 88.918 42.7244 88.9436C42.7429 88.9692 42.7556 88.9984 42.7615 89.0292C42.7673 89.06 42.7662 89.0916 42.7582 89.1218C42.7502 89.152 42.7354 89.18 42.7151 89.2038C42.4669 89.4994 42.1685 89.7102 41.82 89.8361C41.7332 89.867 41.6612 89.9291 41.6186 90.01C41.4146 90.3828 41.3126 90.7708 41.3126 91.1739C41.3092 94.1921 41.3092 97.2591 41.3126 100.375C41.3151 101.483 42.2204 101.637 42.7508 102.368C42.7696 102.394 42.7818 102.424 42.7863 102.455C42.7909 102.487 42.7876 102.519 42.7769 102.549C42.7661 102.58 42.7482 102.607 42.7245 102.629C42.7009 102.65 42.6723 102.666 42.6411 102.675C42.1643 102.803 40.9785 102.458 40.4328 102.325C39.984 102.216 39.4307 102.249 38.9819 102.36C38.426 102.499 37.485 102.803 36.9419 102.713C36.9011 102.706 36.8631 102.688 36.8323 102.661C36.8014 102.634 36.779 102.598 36.7675 102.559C36.756 102.52 36.756 102.478 36.7675 102.439C36.7789 102.4 36.8014 102.364 36.8322 102.337C37.6202 101.639 38.1837 101.176 38.222 100.009C38.2628 98.7749 38.2713 97.4925 38.2475 96.1623C38.2467 96.1162 38.2355 96.0708 38.2148 96.0295C38.194 95.9881 38.1641 95.9518 38.1273 95.9232C38.0905 95.8945 38.0477 95.8742 38.0019 95.8637C37.9561 95.8532 37.9085 95.8528 37.8624 95.8625C37.6295 95.9146 37.4051 95.9397 37.1892 95.9381C36.3239 95.9297 35.4654 95.9087 34.6137 95.8751C34.3409 95.865 34.1445 95.729 33.8895 95.7063Z" fill="white"/>
<path d="M87.8577 96.3437C88.4238 96.6158 89.3189 96.5604 89.5586 97.2154C89.8986 98.1408 90.1519 99.1058 90.3185 100.11C90.4766 101.07 90.831 101.297 91.5119 101.871C91.5703 101.921 91.6131 101.986 91.6354 102.058C91.6576 102.131 91.6583 102.209 91.6374 102.282C91.6165 102.355 91.5748 102.42 91.5173 102.471C91.4598 102.521 91.3889 102.555 91.313 102.567C90.4205 102.703 88.916 103.03 88.1255 102.476C87.4344 101.992 86.904 101.193 86.8122 100.329C86.6847 99.1301 86.4518 98.009 86.1135 96.966C86.0718 96.84 85.9966 96.7273 85.8957 96.6396C85.7948 96.5519 85.6719 96.4923 85.5398 96.4671L84.4305 96.2605C84.3251 96.2421 84.235 96.2706 84.1602 96.3462C83.9375 96.5746 83.8347 96.8744 83.8517 97.2456C83.9061 98.4029 83.9188 99.5055 83.8899 100.554C83.8644 101.551 84.6065 101.763 85.2338 102.297C85.2532 102.313 85.268 102.334 85.2768 102.358C85.2855 102.382 85.288 102.407 85.2839 102.432C85.2798 102.457 85.2693 102.48 85.2533 102.5C85.2374 102.519 85.2166 102.535 85.193 102.544C84.7773 102.715 83.6426 102.431 83.1785 102.347C81.9137 102.121 80.7534 102.589 79.5345 102.65C79.3339 102.66 79.1597 102.603 79.0118 102.478C78.9884 102.459 78.9706 102.434 78.9601 102.406C78.9496 102.378 78.9468 102.347 78.952 102.318C78.9571 102.288 78.9701 102.26 78.9896 102.237C79.009 102.214 79.0342 102.197 79.0628 102.186C79.5932 101.99 80.5112 101.816 80.529 101.12C80.6106 97.6907 80.5945 94.0494 80.4806 90.1964C80.4602 89.5363 79.8635 89.4658 79.356 89.3499C78.9463 89.2558 78.9327 89.1215 79.3152 88.9468C79.4444 88.8863 79.6748 88.8636 80.0063 88.8788C81.4105 88.9392 82.8096 88.9376 84.2036 88.8737C86.2206 88.783 88.8879 88.9795 90.1731 90.7633C90.6015 91.3629 90.5735 91.9726 90.5429 92.6654C90.4715 94.3584 89.0996 95.1596 87.8322 96.0414C87.807 96.0591 87.7869 96.083 87.7738 96.1108C87.7608 96.1386 87.7553 96.1692 87.7578 96.1997C87.7604 96.2302 87.771 96.2595 87.7885 96.2848C87.806 96.31 87.8299 96.3303 87.8577 96.3437ZM83.8542 90.0881L83.9154 95.0714C83.9164 95.1485 83.9328 95.2246 83.9636 95.2955C83.9944 95.3663 84.039 95.4305 84.0948 95.4843C84.1507 95.5381 84.2168 95.5805 84.2893 95.6091C84.3617 95.6377 84.4392 95.6519 84.5172 95.6509L84.6422 95.6483C85.3168 95.6399 85.9604 95.3617 86.4314 94.8751C86.9024 94.3885 87.1623 93.7333 87.1539 93.0534L87.1412 92.0255C87.1329 91.3454 86.857 90.6963 86.374 90.221C85.891 89.7457 85.2405 89.4831 84.5657 89.491L84.4407 89.4935C84.3627 89.4945 84.2856 89.5106 84.2139 89.5411C84.1422 89.5715 84.0773 89.6155 84.0228 89.6708C83.9684 89.726 83.9254 89.7912 83.8965 89.8628C83.8676 89.9344 83.8532 90.011 83.8542 90.0881Z" fill="white"/>
<path d="M149.825 92.6072C149.944 92.5115 150.081 92.4678 150.236 92.4762C151.363 92.5384 152.477 92.5258 153.579 92.4384C153.608 92.4363 153.638 92.4403 153.666 92.45C153.694 92.4598 153.719 92.4751 153.74 92.495C153.762 92.515 153.779 92.5391 153.79 92.5658C153.801 92.5925 153.807 92.6212 153.806 92.6501C153.746 95.2954 153.739 97.9399 153.783 100.584C153.803 101.685 154.897 101.753 154.971 102.44C154.992 102.617 154.912 102.696 154.734 102.677C153.834 102.589 153.046 102.226 152.118 102.287C151.705 102.314 151.266 102.405 150.802 102.561C150.524 102.655 149.943 102.71 149.767 102.393C149.714 102.297 149.732 102.199 149.82 102.1C149.847 102.07 149.879 102.047 149.914 102.032C150.453 101.798 150.799 101.47 150.774 100.878C150.687 98.8729 150.679 96.7902 150.751 94.6303C150.776 93.9123 150.396 93.3101 149.846 92.8692C149.818 92.8476 149.786 92.8332 149.751 92.8275C149.716 92.8218 149.68 92.8249 149.647 92.8365C149.257 92.9709 148.894 93.1287 148.558 93.3101C148.239 93.4789 147.908 93.3983 147.599 93.2598C147.563 93.243 147.523 93.2341 147.483 93.2338C147.442 93.2335 147.403 93.2417 147.366 93.2579C147.329 93.2741 147.296 93.298 147.269 93.3278C147.242 93.3577 147.221 93.3929 147.209 93.4311C147.112 93.7418 147.069 94.0685 147.079 94.4111C147.135 96.5627 147.138 98.7402 147.089 100.944C147.086 101.065 147.13 101.184 147.211 101.276C147.482 101.581 147.839 101.581 148.094 101.297C148.42 100.934 148.805 100.638 149.249 100.41C149.265 100.402 149.282 100.398 149.3 100.399C149.318 100.401 149.335 100.407 149.349 100.417C149.364 100.427 149.375 100.441 149.382 100.457C149.389 100.473 149.392 100.491 149.389 100.508C149.246 101.423 148.719 102.529 147.706 102.702C146.668 102.879 145.294 102.886 144.646 101.911C144.269 101.347 144.079 100.792 144.078 100.246C144.064 98.1818 144.049 95.9908 144.032 93.6729C144.032 93.6147 144.017 93.5574 143.99 93.5059C143.963 93.4543 143.923 93.41 143.875 93.3766C143.826 93.3433 143.77 93.3219 143.711 93.3143C143.653 93.3066 143.593 93.313 143.537 93.3328C143.199 93.4521 142.935 93.3446 142.746 93.0103C142.731 92.983 142.723 92.9522 142.722 92.9209C142.722 92.8895 142.73 92.8586 142.745 92.831C142.76 92.8034 142.782 92.7799 142.808 92.7628C142.835 92.7457 142.865 92.7355 142.897 92.7332L143.585 92.6803C143.691 92.672 143.791 92.6261 143.865 92.5511C143.94 92.4761 143.984 92.377 143.991 92.2722L144.106 90.2365C144.108 90.1909 144.127 90.1476 144.158 90.1137C144.189 90.0798 144.231 90.0574 144.276 90.0501C144.616 89.9921 144.945 90.0324 145.273 89.914C145.823 89.7142 146.402 89.636 147.013 89.6797C147.04 89.682 147.067 89.6896 147.092 89.7021C147.117 89.7146 147.139 89.7319 147.156 89.7527C147.174 89.7736 147.188 89.7977 147.196 89.8237C147.204 89.8497 147.207 89.8769 147.204 89.9039C147.143 90.5892 146.936 91.7784 147.232 92.4334C147.281 92.5443 147.365 92.5871 147.484 92.5619C148.171 92.4158 148.889 92.4443 149.637 92.6475C149.706 92.6677 149.769 92.6543 149.825 92.6072Z" fill="white"/>
<path d="M53.0616 98.582C53.0577 99.6925 52.6074 100.756 51.8098 101.539C51.0123 102.321 49.9327 102.758 48.8087 102.755L47.8346 102.751C47.2781 102.749 46.7274 102.639 46.2139 102.427C45.7005 102.215 45.2344 101.905 44.8422 101.514C44.45 101.124 44.1395 100.662 43.9283 100.153C43.7171 99.6442 43.6094 99.0993 43.6114 98.5494L43.6191 96.3676C43.623 95.2571 44.0733 94.1936 44.8708 93.4111C45.6684 92.6286 46.7479 92.1912 47.8719 92.1951L48.846 92.1984C49.4026 92.2004 49.9533 92.3106 50.4667 92.5228C50.9802 92.735 51.4463 93.045 51.8385 93.4352C52.2306 93.8253 52.5412 94.288 52.7524 94.7968C52.9636 95.3055 53.0712 95.8504 53.0693 96.4002L53.0616 98.582ZM49.6638 94.4768C49.5592 94.0334 48.6514 92.1514 47.8966 93.0155C47.4631 93.5127 47.169 94.03 47.0143 94.5675C46.5094 96.3159 46.4661 98.1097 46.8843 99.9489C47.1393 101.07 47.2744 101.886 48.6004 101.821C49.3807 101.783 49.6459 100.949 49.7505 100.324C50.1058 98.1878 50.0769 96.2387 49.6638 94.4768Z" fill="white"/>
<path d="M62.5134 93.5924L62.391 94.7463C62.3608 95.03 62.2225 95.2917 62.0042 95.4784C61.7859 95.665 61.5039 95.7627 61.2154 95.7515L60.5065 95.7264C60.2412 95.7162 59.9879 95.6147 59.7904 95.4393C59.593 95.264 59.4638 95.026 59.4253 94.7665L59.2239 93.4236C59.1968 93.2442 59.2141 93.0609 59.2743 92.8894C59.3346 92.718 59.4359 92.5635 59.5697 92.4392C59.7036 92.3149 59.8659 92.2245 60.0428 92.1757C60.2197 92.1269 60.4059 92.1211 60.5856 92.1589L61.6183 92.3781C61.8929 92.4357 62.1362 92.5916 62.3014 92.8158C62.4667 93.04 62.5421 93.3166 62.5134 93.5924Z" fill="white"/>
<path d="M95.5179 96.6988C95.4698 96.6992 95.4224 96.7102 95.3791 96.731C95.3358 96.7517 95.2978 96.7816 95.2677 96.8185C95.2377 96.8554 95.2164 96.8984 95.2054 96.9444C95.1944 96.9904 95.1941 97.0381 95.2043 97.0842C95.3403 97.6889 95.4941 98.2885 95.6658 98.8831C95.9718 99.9362 97.0275 101.239 98.2719 100.873C99.1525 100.615 99.8249 100.185 100.289 99.5834C100.643 99.1249 100.812 99.1837 100.796 99.7598C100.786 100.211 100.452 100.629 100.205 100.989C99.3939 102.167 98.209 102.761 96.6501 102.773C93.5009 102.796 91.9938 99.649 92.31 96.9557C92.5599 94.8344 93.3555 93.0583 95.5995 92.4133C97.0241 92.0052 98.2702 92.1236 99.3378 92.7685C100.401 93.4135 100.835 95.3307 100.896 96.4443C100.898 96.4755 100.893 96.5066 100.882 96.5359C100.871 96.5652 100.854 96.592 100.833 96.6146C100.811 96.6373 100.785 96.6553 100.756 96.6676C100.727 96.6799 100.695 96.6862 100.664 96.6862L95.5179 96.6988ZM96.0764 95.7993L97.5503 95.9127C97.6221 95.9186 97.6944 95.9104 97.7631 95.8886C97.8317 95.8668 97.8953 95.8319 97.9503 95.7858C98.0052 95.7397 98.0504 95.6833 98.0833 95.6199C98.1162 95.5566 98.1361 95.4874 98.1419 95.4164L98.1444 95.3761C98.1913 94.7894 98.1016 94.2161 97.895 93.7824C97.6884 93.3487 97.3819 93.09 97.0428 93.0633H97.0326C96.8647 93.05 96.6939 93.094 96.5298 93.1929C96.3658 93.2917 96.2118 93.4435 96.0766 93.6396C95.9413 93.8356 95.8276 94.0721 95.7418 94.3355C95.656 94.5988 95.5999 94.8839 95.5766 95.1745L95.574 95.2148C95.5681 95.2858 95.5764 95.3573 95.5985 95.4251C95.6205 95.4929 95.6559 95.5557 95.7025 95.61C95.7492 95.6643 95.8062 95.709 95.8704 95.7415C95.9345 95.774 96.0045 95.7936 96.0764 95.7993Z" fill="white"/>
<path d="M122.951 98.5135C122.949 99.6447 122.493 100.729 121.682 101.527C120.871 102.326 119.772 102.773 118.627 102.771L117.795 102.77C116.65 102.768 115.553 102.317 114.745 101.515C113.937 100.714 113.484 99.6284 113.486 98.4971L113.489 96.4615C113.491 95.3302 113.948 94.2461 114.759 93.4476C115.57 92.6491 116.669 92.2016 117.814 92.2036L118.645 92.2051C119.79 92.207 120.888 92.6583 121.696 93.4596C122.504 94.2609 122.957 95.3466 122.955 96.4778L122.951 98.5135ZM118.233 102.032C118.685 102.033 119.119 101.551 119.44 100.693C119.761 99.8346 119.942 98.6699 119.944 97.4551C119.945 96.8536 119.902 96.258 119.818 95.7021C119.733 95.1463 119.608 94.6411 119.451 94.2155C119.294 93.79 119.106 93.4523 118.9 93.2217C118.694 92.9912 118.473 92.8723 118.249 92.872C117.797 92.8712 117.363 93.353 117.042 94.2114C116.721 95.0698 116.54 96.2345 116.537 97.4492C116.536 98.0507 116.579 98.6464 116.664 99.2023C116.749 99.7581 116.873 100.263 117.031 100.689C117.188 101.114 117.375 101.452 117.581 101.683C117.788 101.913 118.009 102.032 118.233 102.032Z" fill="white"/>
<path d="M136.369 93.1313C136.501 93.4421 136.638 93.7637 136.779 94.0963C137.152 94.9806 136.675 95.4542 136.042 95.9379C135.444 96.3931 134.781 96.3318 134.053 95.754C133.26 95.1216 133.597 94.0257 134.102 93.343C134.314 93.0591 134.725 92.8097 135.334 92.5947C136.925 92.0354 138.445 92.0388 139.896 92.6048C140.946 93.0154 141.303 94.0282 141.29 95.0713C141.267 97.075 141.265 98.9435 141.285 100.677C141.287 100.787 141.319 100.894 141.378 100.987C141.437 101.08 141.52 101.155 141.619 101.203C142.029 101.408 142.234 101.726 142.234 102.156C142.233 102.244 142.2 102.328 142.139 102.392C142.078 102.456 141.996 102.495 141.907 102.501C141.131 102.551 140.377 102.561 139.648 102.529C138.771 102.488 138.592 101.425 137.636 101.831C137.544 101.869 137.481 101.936 137.445 102.03C137.346 102.284 137.164 102.468 136.876 102.498C135.946 102.603 135.255 102.599 134.801 102.488C133.725 102.224 132.692 100.735 133.273 99.5633C133.719 98.6647 134.422 98.0298 135.385 97.6587C136.355 97.2858 137.258 96.8659 138.093 96.399C138.174 96.3533 138.237 96.2822 138.271 96.1974C138.727 95.0788 138.532 94.0778 137.687 93.1943C137.394 92.8895 137.134 92.5771 136.642 92.6501C136.589 92.6583 136.538 92.6782 136.494 92.7085C136.45 92.7388 136.413 92.7787 136.387 92.8251C136.36 92.8714 136.345 92.9231 136.342 92.9762C136.339 93.0292 136.348 93.0823 136.369 93.1313ZM136.104 99.5935C136.024 99.7968 136.024 99.9924 136.104 100.181C136.509 101.156 137.402 101.163 138.21 100.702C138.404 100.591 138.506 100.407 138.516 100.15C138.555 99.2366 138.537 98.391 138.462 97.6133C138.458 97.5682 138.443 97.5248 138.419 97.486C138.395 97.4473 138.363 97.4143 138.325 97.3895C138.286 97.3646 138.243 97.3485 138.197 97.3423C138.152 97.3362 138.106 97.3401 138.062 97.3538C136.943 97.704 136.519 98.5203 136.104 99.5935Z" fill="white"/>
<path d="M165.409 98.3955C165.411 98.9632 165.3 99.5258 165.082 100.051C164.864 100.576 164.543 101.054 164.138 101.457C163.733 101.86 163.252 102.18 162.722 102.399C162.192 102.618 161.623 102.732 161.049 102.734L160.243 102.737C159.668 102.739 159.099 102.629 158.567 102.413C158.035 102.198 157.552 101.881 157.144 101.481C156.736 101.081 156.412 100.605 156.191 100.082C155.969 99.5579 155.854 98.9961 155.852 98.4284L155.845 96.5389C155.843 95.9711 155.954 95.4086 156.172 94.8833C156.39 94.358 156.711 93.8803 157.116 93.4775C157.521 93.0746 158.002 92.7545 158.532 92.5354C159.062 92.3163 159.631 92.2025 160.206 92.2006L161.011 92.1978C161.586 92.1958 162.155 92.3057 162.687 92.5211C163.219 92.7365 163.702 93.0533 164.11 93.4534C164.518 93.8534 164.842 94.3289 165.063 94.8526C165.285 95.3764 165.4 95.9382 165.402 96.5059L165.409 98.3955ZM160.109 93.1061C159.788 93.8317 159.281 94.1844 159.171 95.0007C158.998 96.2579 158.737 97.3941 158.972 98.7117C159.083 99.3265 159.196 99.9664 159.314 100.632C159.487 101.604 160.069 102 161.058 101.821C161.848 101.677 162.037 100.604 162.091 99.9488C162.208 98.511 162.22 96.9188 162.126 95.172C162.081 94.2953 161.624 93.5974 161.017 92.9953C160.747 92.7282 160.28 92.7232 160.109 93.1061Z" fill="white"/>
<path d="M171.006 93.7864C170.756 94.2197 170.626 94.6463 170.615 95.0662C170.58 96.4703 170.581 97.9375 170.621 99.4676C170.638 100.133 170.46 100.765 170.641 101.415C170.665 101.496 170.707 101.565 170.768 101.622L171.378 102.178C171.412 102.21 171.437 102.251 171.449 102.297C171.461 102.342 171.46 102.39 171.446 102.434C171.432 102.479 171.405 102.519 171.369 102.549C171.333 102.58 171.29 102.6 171.243 102.607C170.859 102.66 170.473 102.611 170.088 102.458C169.361 102.173 168.438 102.224 167.731 102.466C167.328 102.602 166.915 102.686 166.49 102.718C166.451 102.721 166.412 102.713 166.377 102.696C166.342 102.678 166.313 102.651 166.293 102.618C166.272 102.585 166.262 102.547 166.263 102.509C166.263 102.47 166.275 102.433 166.296 102.4C166.78 101.657 167.494 101.591 167.517 100.511C167.553 98.8361 167.549 97.3496 167.507 96.0513C167.489 95.4895 167.708 94.7185 167.425 94.2449C167.135 93.7595 166.795 93.2817 166.405 92.8114C166.374 92.7742 166.355 92.7289 166.35 92.681C166.345 92.6332 166.354 92.5849 166.376 92.5421C166.398 92.4992 166.433 92.4637 166.475 92.44C166.517 92.4162 166.566 92.4052 166.614 92.4083C167.492 92.4637 168.323 92.5317 169.203 92.436C169.779 92.3755 170.355 92.4679 170.932 92.7131C171.05 92.7619 171.181 92.7672 171.301 92.7282C172.581 92.3025 173.405 91.854 174.825 92.504C175.772 92.9348 176.251 93.6352 176.225 94.643C176.178 96.4048 176.181 98.2944 176.236 100.312C176.254 101.025 176.548 101.596 177.118 102.022C177.205 102.089 177.265 102.184 177.286 102.289C177.342 102.565 177.272 102.712 177.075 102.73C176.913 102.744 176.759 102.722 176.613 102.665C175.891 102.385 174.672 102.08 173.905 102.367C173.643 102.465 173.385 102.555 173.13 102.637C172.868 102.719 172.615 102.7 172.37 102.579L172.222 102.506C172.004 102.397 172.005 102.291 172.224 102.188C172.921 101.861 173.375 101.402 173.382 100.619C173.397 98.6656 173.4 96.7156 173.39 94.7689C173.38 93.2069 172.296 93.4034 171.204 93.6402C171.116 93.6604 171.05 93.7091 171.006 93.7864Z" fill="white"/>
<path d="M67.1288 92.7937C67.6609 92.8592 68.1794 92.7601 68.6843 92.4964C69.5334 92.0505 70.7574 92.1639 71.6066 92.4788C72.5577 92.8315 72.902 94.2272 72.9122 95.0864C72.9292 96.7441 72.9402 98.3859 72.9453 100.012C72.947 100.502 73.0533 100.988 73.2641 101.47C73.3026 101.56 73.364 101.639 73.4426 101.7C73.7146 101.911 73.9322 102.145 74.0954 102.4C74.1153 102.431 74.1255 102.467 74.1249 102.504C74.1242 102.54 74.1126 102.576 74.0915 102.606C74.0704 102.637 74.0408 102.661 74.0062 102.675C73.9715 102.689 73.9334 102.694 73.8965 102.687C73.208 102.556 72.5263 102.419 71.8514 102.274C71.0532 102.103 70.3469 102.524 69.6125 102.597C68.6945 102.692 67.5563 102.605 66.198 102.335C65.7186 102.239 65.1806 102.224 64.7114 102.377C64.2524 102.526 63.4287 102.778 62.9978 102.556C62.9669 102.541 62.9407 102.517 62.9217 102.489C62.9026 102.46 62.8914 102.427 62.8891 102.393C62.8868 102.358 62.8935 102.324 62.9085 102.293C62.9235 102.262 62.9464 102.236 62.9748 102.216L63.7832 101.654C63.8689 101.595 63.9385 101.516 63.9861 101.424C64.0337 101.332 64.0577 101.229 64.056 101.125C64.0237 99.2912 64.0093 97.4873 64.0127 95.7137C64.0152 95.1115 64.3442 94.2953 63.8138 93.8191C63.5163 93.5537 63.3233 93.1767 63.2349 92.6879C63.2279 92.6508 63.2298 92.6125 63.2405 92.5762C63.2511 92.5399 63.2702 92.5066 63.2963 92.4789C63.3223 92.4513 63.3545 92.43 63.3904 92.4169C63.4262 92.4037 63.4647 92.399 63.5027 92.4032C64.5601 92.5225 65.5461 92.5275 66.4607 92.4183C66.5389 92.4082 66.6069 92.4301 66.6647 92.4838L66.8789 92.6778C66.9503 92.7433 67.0336 92.782 67.1288 92.7937ZM68.6792 93.4336C67.496 93.5319 67.0778 94.5774 67.0701 95.5751C67.0548 97.169 67.0582 98.8226 67.0803 100.536C67.1109 102.677 69.8394 103.017 69.8445 100.735C69.8496 98.5614 69.8641 96.5132 69.8879 94.59C69.8981 93.7536 69.4952 93.3681 68.6792 93.4336Z" fill="white"/>
<path d="M102.383 93.5772C102.122 93.3908 101.873 93.1842 101.635 92.9575C101.578 92.902 101.535 92.839 101.508 92.7685C101.447 92.6073 101.503 92.525 101.676 92.5216L105.427 92.4435C105.49 92.4435 105.549 92.4595 105.603 92.4914C106.076 92.7786 106.621 92.7752 107.24 92.4813C108.027 92.1067 109.019 92.1151 110.216 92.5065C111.019 92.7685 111.415 93.3194 111.404 94.1592C111.387 95.6759 111.378 97.1976 111.376 98.7243C111.376 99.5624 111.388 100.05 111.412 100.188C111.585 101.231 112.075 101.737 112.802 102.403C112.817 102.416 112.827 102.434 112.832 102.454C112.837 102.473 112.836 102.494 112.829 102.513C112.823 102.532 112.81 102.548 112.794 102.561C112.778 102.573 112.758 102.58 112.738 102.581C111.555 102.65 110.632 102.035 109.421 102.34C108.072 102.679 106.825 102.732 105.677 102.498C104.718 102.302 104.066 102.131 103.007 102.42C102.553 102.546 102.003 102.588 101.357 102.546C101.242 102.538 101.22 102.488 101.291 102.398C101.946 101.544 102.816 101.79 102.798 100.329C102.779 98.7352 102.771 97.2085 102.773 95.7489C102.773 95.0158 103.125 94.1113 102.383 93.5772ZM108.666 94.7809C108.668 94.6062 108.636 94.4328 108.571 94.2705C108.505 94.1082 108.408 93.9602 108.285 93.8349C108.162 93.7097 108.015 93.6097 107.852 93.5406C107.69 93.4715 107.515 93.4347 107.338 93.4322L107.236 93.4308C107.06 93.4284 106.884 93.4604 106.72 93.525C106.556 93.5896 106.406 93.6855 106.279 93.8073C106.152 93.9291 106.051 94.0743 105.981 94.2348C105.911 94.3952 105.874 94.5677 105.871 94.7424L105.784 100.924C105.782 101.099 105.814 101.272 105.879 101.435C105.945 101.597 106.042 101.745 106.165 101.87C106.288 101.996 106.435 102.096 106.598 102.165C106.76 102.234 106.935 102.271 107.112 102.273L107.213 102.274C107.39 102.277 107.566 102.245 107.73 102.18C107.894 102.116 108.044 102.02 108.171 101.898C108.298 101.776 108.399 101.631 108.469 101.47C108.539 101.31 108.576 101.138 108.579 100.963L108.666 94.7809Z" fill="white"/>
<path d="M58.956 93.3658C58.7792 93.7219 58.6126 94.0738 58.4562 94.4214C58.27 94.8346 58.1604 95.3284 58.1553 95.7819C58.1383 97.0802 58.1264 98.4272 58.1196 99.823C58.1119 101.131 58.6857 101.556 59.7337 102.136C59.8697 102.211 59.9709 102.316 60.0372 102.451C60.0509 102.478 60.0566 102.509 60.0536 102.54C60.0506 102.57 60.0391 102.6 60.0204 102.624C60.0016 102.649 59.9763 102.668 59.9473 102.679C59.9183 102.69 59.8868 102.693 59.8561 102.688C58.5964 102.466 57.0588 102.007 55.8016 102.403C55.2763 102.567 54.7621 102.667 54.2589 102.703C54.2241 102.705 54.1895 102.697 54.1589 102.681C54.1284 102.664 54.1032 102.639 54.0864 102.609C54.0695 102.579 54.0617 102.545 54.0638 102.511C54.0659 102.476 54.0778 102.443 54.0982 102.415C54.3039 102.14 54.5351 101.881 54.7918 101.639C55.2712 101.188 55.3477 100.488 55.3426 99.8709C55.3307 98.1946 55.3299 96.5621 55.3401 94.9732C55.3426 94.2426 54.7893 93.5875 54.366 93.0081C54.0175 92.5327 54.1373 92.3362 54.7255 92.4185C55.6894 92.5512 56.5666 92.5252 57.3571 92.3404C57.4618 92.3145 57.5732 92.3299 57.6682 92.3833C58.0813 92.6066 58.4987 92.8821 58.9203 93.2096C58.9764 93.2516 58.9883 93.3037 58.956 93.3658Z" fill="white"/>
<path d="M129.333 99.0092C129.44 98.8832 129.535 98.8177 129.581 98.6489C129.7 98.2005 129.876 97.7797 130.111 97.3867C130.511 96.709 130.606 96.0061 130.715 95.2578C130.792 94.7187 131.001 94.1014 130.45 93.7034C130.107 93.4514 129.891 93.0995 129.803 92.6477C129.763 92.4546 129.843 92.363 130.042 92.3731L133.084 92.5293C133.101 92.5301 133.117 92.5352 133.131 92.5439C133.145 92.5526 133.157 92.5648 133.165 92.5792C133.173 92.5936 133.177 92.6098 133.176 92.6262C133.176 92.6426 133.172 92.6587 133.163 92.6729C132.869 93.1617 132.532 93.6127 132.151 94.0258C131.911 94.2828 131.718 94.6481 131.654 94.9908C131.508 95.7919 131.282 96.5158 130.976 97.1625C130.704 97.7402 130.49 98.3063 130.335 98.8605C130.063 99.8313 129.602 100.992 128.951 102.342C128.726 102.806 128.117 102.859 127.793 102.473C127.402 102.013 127.076 101.446 126.814 100.773C125.978 98.6178 125.156 96.604 124.351 94.7313C124.053 94.041 123.648 93.3624 123.134 92.6956C123.063 92.6016 123.086 92.5444 123.203 92.5243C124.083 92.3731 124.947 92.7284 125.827 92.7082C126.521 92.6931 127.221 92.5671 127.928 92.3303C127.98 92.3131 128.036 92.3116 128.088 92.3259C128.141 92.3402 128.188 92.3697 128.223 92.4106C128.258 92.4516 128.28 92.502 128.287 92.5555C128.293 92.609 128.282 92.663 128.257 92.7107L127.576 93.9931C127.521 94.0988 127.491 94.2161 127.491 94.335C127.491 94.454 127.521 94.5709 127.576 94.6758C128.212 95.8818 128.692 97.1826 129.017 98.5784C129.043 98.6842 129.091 98.7816 129.162 98.8706C129.188 98.9008 129.202 98.9336 129.203 98.9689C129.208 99.0932 129.252 99.1066 129.333 99.0092Z" fill="white"/>
<path d="M73.5267 109.832L73.4222 109.278C73.4115 109.222 73.4137 109.164 73.4287 109.109C73.4436 109.053 73.4709 109.002 73.5086 108.958C73.5463 108.915 73.5934 108.88 73.6464 108.857C73.6994 108.834 73.757 108.823 73.8149 108.825L74.2866 108.84C74.3404 108.842 74.3931 108.855 74.4414 108.878C74.4898 108.901 74.5327 108.934 74.5675 108.975C74.6023 109.015 74.6281 109.062 74.6434 109.113C74.6587 109.164 74.6632 109.218 74.6564 109.271L74.5671 109.973C74.5592 110.037 74.5352 110.097 74.4974 110.149C74.4597 110.201 74.4093 110.243 74.351 110.271C74.2926 110.299 74.2282 110.312 74.1635 110.309C74.0988 110.306 74.0359 110.286 73.9806 110.253L73.7078 110.087C73.6613 110.059 73.6211 110.022 73.5899 109.979C73.5588 109.935 73.5372 109.885 73.5267 109.832Z" fill="white"/>
<path d="M99.0166 109.759L98.9809 109.218C98.9774 109.17 98.9839 109.121 98.9999 109.076C99.016 109.03 99.0412 108.988 99.0741 108.953C99.107 108.917 99.147 108.889 99.1914 108.869C99.2359 108.849 99.284 108.838 99.3328 108.837L99.7688 108.83C99.8222 108.829 99.8751 108.84 99.9237 108.861C99.9722 108.883 100.015 108.915 100.05 108.956C100.084 108.996 100.109 109.043 100.123 109.094C100.136 109.145 100.138 109.199 100.128 109.25L99.9703 110.084C99.958 110.151 99.9268 110.212 99.8804 110.262C99.834 110.311 99.7742 110.347 99.7081 110.364C99.642 110.381 99.5723 110.379 99.5072 110.359C99.4421 110.338 99.3842 110.3 99.3404 110.248L99.1007 109.963C99.0515 109.906 99.022 109.834 99.0166 109.759Z" fill="white"/>
<path d="M53.0043 111.699L52.6549 111.692C52.2503 111.685 52.0472 111.881 52.0455 112.281L52.0251 116.362C52.0234 116.636 51.884 116.777 51.6069 116.783L51.3774 116.788C51.324 116.79 51.271 116.78 51.2212 116.761C51.1715 116.742 51.1261 116.714 51.0877 116.677C51.0492 116.641 51.0186 116.597 50.9974 116.548C50.9762 116.5 50.9649 116.448 50.9643 116.395C50.9405 114.959 50.9116 113.657 50.8776 112.488C50.8708 112.261 50.7484 111.922 50.5104 111.47C50.4713 111.394 50.4747 111.321 50.5206 111.251C50.9439 110.611 50.9643 110.039 51.0969 109.366C51.1581 109.061 51.3595 108.827 51.6834 108.925C51.7467 108.944 51.8028 108.981 51.8447 109.031C51.8865 109.082 51.912 109.143 51.918 109.207C51.9664 109.759 51.9103 110.921 52.632 111.074C52.9975 111.15 53.3519 111.255 53.6953 111.389C53.8063 111.432 53.9259 111.45 54.0449 111.44C54.1639 111.429 54.279 111.392 54.3813 111.331C54.7859 111.093 55.2313 110.956 55.7175 110.921C55.9793 110.902 56.2249 110.961 56.4544 111.097C56.553 111.156 56.6227 111.239 56.6635 111.346C56.6687 111.36 56.6707 111.375 56.6693 111.39C56.668 111.405 56.6633 111.419 56.6557 111.432C56.6481 111.444 56.6377 111.455 56.6254 111.463C56.6131 111.471 56.5991 111.476 56.5845 111.477C55.7226 111.583 55.1888 112.012 54.9831 112.762C54.6805 113.869 54.5734 115.017 54.6618 116.206C54.6656 116.262 54.6579 116.318 54.639 116.37C54.6201 116.423 54.5904 116.471 54.5519 116.511C54.5134 116.552 54.4668 116.584 54.4151 116.606C54.3634 116.628 54.3076 116.64 54.2512 116.64L54.1033 116.637C53.8823 116.637 53.7676 116.529 53.7591 116.312L53.5831 112.256C53.5678 111.891 53.3749 111.706 53.0043 111.699Z" fill="white"/>
<path d="M128.354 110.404L128.546 109.266C128.559 109.184 128.597 109.109 128.655 109.049C128.713 108.989 128.787 108.947 128.869 108.928C129.376 108.815 129.838 108.846 130.257 109.021C130.304 109.042 130.345 109.075 130.374 109.118C130.403 109.16 130.419 109.21 130.421 109.262C130.422 109.313 130.409 109.364 130.382 109.408C130.355 109.452 130.316 109.487 130.269 109.51C129.759 109.757 129.025 110.266 129.372 110.898C129.418 110.982 129.488 111.032 129.583 111.047L130.315 111.163C130.436 111.181 130.46 111.239 130.387 111.336C130.172 111.629 129.902 111.847 129.576 111.992C129.496 112.027 129.444 112.086 129.42 112.17C129.337 112.466 129.294 112.766 129.29 113.07C129.282 114.051 129.305 115.072 129.359 116.133C129.374 116.431 129.236 116.614 128.943 116.683C128.872 116.698 128.8 116.702 128.727 116.695C128.519 116.677 128.412 116.564 128.405 116.358C128.358 115.069 128.367 113.786 128.433 112.508C128.438 112.407 128.416 112.307 128.37 112.217C128.324 112.127 128.255 112.05 128.171 111.994L127.783 111.74C127.723 111.7 127.674 111.647 127.639 111.585C127.603 111.523 127.584 111.453 127.581 111.382C127.579 111.311 127.594 111.24 127.624 111.176C127.655 111.111 127.701 111.055 127.758 111.011L128.178 110.692C128.275 110.619 128.334 110.524 128.354 110.404Z" fill="white"/>
<path d="M89.4489 111.795L89.2016 111.53C89.1081 111.43 89.1089 111.33 89.2041 111.231C89.6988 110.712 89.7753 109.84 89.9258 109.17C89.9398 109.106 89.9746 109.049 90.0249 109.007C90.0751 108.965 90.138 108.941 90.2037 108.938C90.4332 108.93 90.5684 109.025 90.6092 109.223C90.7418 109.878 90.7724 110.87 91.5297 111.11C91.57 111.123 91.6059 111.146 91.6332 111.178C91.6605 111.21 91.6783 111.249 91.6844 111.291C91.6905 111.332 91.6847 111.374 91.6677 111.413C91.6508 111.451 91.6233 111.484 91.5884 111.508C91.0563 111.86 90.7979 112.358 90.8132 113.002C90.8387 114.172 90.8472 115.316 90.8387 116.433C90.8381 116.51 90.8126 116.585 90.7658 116.647C90.7189 116.708 90.6533 116.754 90.5786 116.776C90.4987 116.798 90.4179 116.806 90.3363 116.801C89.9895 116.781 89.811 116.599 89.8008 116.257L89.6708 112.332C89.6642 112.132 89.5855 111.941 89.4489 111.795Z" fill="white"/>
<path d="M123.839 109.007L123.82 109C123.553 108.905 123.26 109.041 123.163 109.304L120.282 117.169C120.185 117.432 120.323 117.723 120.589 117.818L120.608 117.825C120.874 117.92 121.168 117.784 121.265 117.521L124.146 109.656C124.243 109.393 124.105 109.103 123.839 109.007Z" fill="white"/>
<path d="M39.8411 113.178C39.655 113.765 39.2878 115.841 40.3919 115.859C40.9121 115.869 41.3949 115.825 41.8403 115.728C41.9236 115.709 42.0078 115.711 42.0928 115.733L43.8089 116.196C43.9024 116.22 43.9058 116.253 43.8191 116.295C42.6028 116.879 40.7923 116.783 39.451 116.647C39.3377 116.636 39.2317 116.587 39.1502 116.509C39.0688 116.431 39.0166 116.328 39.0022 116.216C38.9231 115.592 38.8135 114.969 38.8543 114.335C38.9155 113.402 39.0404 112.518 38.918 111.591C38.8262 110.901 38.8551 110.199 39.0047 109.485C39.0227 109.401 39.0664 109.324 39.1299 109.265C39.1933 109.207 39.2734 109.169 39.3592 109.157C40.4939 108.996 42.3886 108.855 43.4162 109.407C43.4594 109.43 43.4927 109.467 43.51 109.513C43.5273 109.558 43.5275 109.608 43.5106 109.653C43.4273 109.882 43.2607 109.989 43.0108 109.973C42.1251 109.921 41.2581 109.898 40.4098 109.903C40.0001 109.906 39.7604 110.107 39.6907 110.505C39.6278 110.864 39.6295 111.228 39.6958 111.596C39.7655 111.984 39.9992 112.164 40.397 112.135C41.264 112.072 42.5033 111.855 43.2887 112.251C43.3173 112.265 43.3422 112.286 43.3613 112.311C43.3805 112.336 43.3934 112.366 43.3991 112.397C43.4048 112.428 43.4031 112.46 43.3941 112.491C43.3851 112.522 43.3691 112.55 43.3474 112.573C42.8272 113.138 40.9657 112.987 40.1854 112.944C40.0103 112.934 39.8955 113.012 39.8411 113.178Z" fill="white"/>
<path d="M103.122 110.85C103.552 110.996 104.012 111.164 104.502 111.354C104.848 111.49 105.121 111.399 105.43 111.233C105.469 111.212 105.514 111.203 105.558 111.206C105.603 111.209 105.646 111.224 105.682 111.25C105.718 111.275 105.747 111.31 105.764 111.351C105.781 111.392 105.786 111.436 105.779 111.48C105.567 112.747 105.361 114.705 106.373 115.652C106.965 116.206 107.786 116.005 108.196 115.33C108.511 114.817 108.65 114.317 108.612 113.828C108.556 113.113 108.513 112.36 108.482 111.571C108.48 111.527 108.488 111.483 108.505 111.443C108.522 111.403 108.548 111.366 108.582 111.337C108.615 111.308 108.654 111.286 108.697 111.273C108.74 111.26 108.785 111.257 108.829 111.263L109.969 111.435C110.125 111.458 110.14 111.517 110.012 111.611C109.589 111.921 109.681 112.327 109.622 112.8C109.54 113.448 109.673 114.093 109.489 114.745C109.352 115.239 109.152 115.721 108.89 116.191C108.245 117.355 106.297 116.841 105.471 116.272C105.139 116.043 104.929 115.624 104.841 115.015C104.676 113.884 104.623 112.956 104.683 112.231C104.703 111.965 104.578 111.827 104.308 111.815L103.29 111.777C102.979 111.766 102.828 111.914 102.836 112.223L102.959 116.322C102.961 116.407 102.936 116.49 102.887 116.56C102.838 116.63 102.767 116.682 102.686 116.71C102.601 116.741 102.514 116.751 102.426 116.741C102.263 116.725 102.178 116.636 102.173 116.473C102.127 115.021 102.11 113.715 102.12 112.556C102.123 111.976 101.736 111.64 100.96 111.546C100.529 111.492 100.516 111.389 100.919 111.236L101.844 110.88C101.948 110.841 102.035 110.77 102.094 110.678C102.153 110.586 102.18 110.477 102.171 110.369L102.084 109.263C102.067 109.045 102.167 108.962 102.382 109.014C102.437 109.025 102.489 109.041 102.538 109.061C102.608 109.087 102.668 109.132 102.714 109.19C102.759 109.249 102.786 109.318 102.793 109.391L102.905 110.576C102.919 110.713 102.991 110.805 103.122 110.85Z" fill="white"/>
<path d="M156.057 111.218C156.084 111.22 156.112 111.217 156.137 111.208C156.163 111.199 156.187 111.186 156.207 111.168C156.227 111.15 156.244 111.128 156.255 111.104C156.267 111.08 156.273 111.053 156.274 111.026L156.333 109.407C156.341 109.17 156.465 109.051 156.705 109.051H156.787C157.084 109.051 157.235 109.198 157.238 109.492C157.262 111.387 157.281 113.385 157.297 115.488C157.298 115.757 157.339 116.018 157.419 116.272C157.427 116.297 157.43 116.323 157.426 116.349C157.422 116.375 157.412 116.4 157.396 116.422C157.381 116.443 157.361 116.461 157.338 116.474C157.314 116.487 157.288 116.494 157.261 116.496C156.389 116.541 155.541 116.651 154.719 116.826C153.653 117.053 152.531 116.169 151.962 115.342C151.629 114.858 151.485 114.312 151.531 113.702C151.631 112.397 152.528 111.45 153.75 111.034C154.441 110.797 155.32 111.168 156.057 111.218ZM154.76 115.938C155.243 115.854 155.669 115.561 155.944 115.123C156.218 114.685 156.319 114.139 156.223 113.604C156.176 113.339 156.082 113.085 155.947 112.856C155.811 112.627 155.637 112.428 155.435 112.27C155.232 112.112 155.004 111.999 154.765 111.936C154.526 111.873 154.279 111.862 154.04 111.904C153.556 111.988 153.131 112.282 152.856 112.719C152.582 113.157 152.481 113.704 152.577 114.239C152.624 114.504 152.718 114.758 152.853 114.987C152.989 115.215 153.163 115.414 153.365 115.572C153.568 115.73 153.796 115.844 154.035 115.906C154.274 115.969 154.52 115.98 154.76 115.938Z" fill="white"/>
<path d="M73.3711 112.488C73.4043 111.583 72.3511 111.299 71.9661 112.115C71.689 112.701 71.5445 113.2 71.5326 113.611C71.5071 114.5 71.4884 115.43 71.4765 116.403C71.4731 116.675 71.3345 116.797 71.0608 116.768L70.7038 116.73C70.606 116.72 70.5157 116.674 70.4502 116.602C70.3848 116.53 70.3489 116.436 70.3494 116.34L70.3851 111.387C70.3856 111.312 70.415 111.24 70.4675 111.185C70.52 111.13 70.5917 111.097 70.6681 111.092L73.9245 110.885C74.0297 110.878 74.1335 110.913 74.2136 110.981C74.2937 111.049 74.3437 111.146 74.3529 111.251C74.4838 112.887 74.5399 114.605 74.5212 116.405C74.5178 116.656 74.3894 116.777 74.1361 116.771L73.7613 116.761C73.5233 116.754 73.3983 116.634 73.3864 116.4C73.3252 115.168 73.3201 113.863 73.3711 112.488Z" fill="white"/>
<path d="M47.0475 111.75C46.6344 111.782 46.2817 111.983 45.9893 112.354C44.9999 113.609 45.0407 114.821 45.3467 116.295C45.3531 116.326 45.351 116.359 45.3406 116.39C45.3302 116.421 45.3119 116.448 45.2874 116.47C45.263 116.492 45.2332 116.507 45.2011 116.513C45.169 116.52 45.1357 116.519 45.1044 116.509L44.3139 116.247C44.2204 116.216 44.2102 116.169 44.2833 116.103C44.4159 115.99 44.4567 115.796 44.4338 115.632C44.3114 114.79 44.2825 113.944 44.3471 113.092C44.3853 112.581 44.1839 112.158 44.1609 111.649C44.1524 111.441 44.251 111.361 44.4567 111.409L44.9693 111.53C45.0917 111.561 45.2098 111.551 45.3237 111.5C45.6722 111.349 46.0309 111.203 46.3998 111.062C47.9196 110.477 49.1258 111.639 49.1079 113.105C49.0943 114.185 49.0926 115.315 49.1028 116.496C49.1045 116.763 48.9762 116.857 48.7178 116.778L48.5291 116.723C48.2639 116.642 48.1321 116.465 48.1338 116.191C48.1372 115.32 48.1304 114.402 48.1134 113.438C48.1007 112.853 47.8814 111.687 47.0475 111.75Z" fill="white"/>
<path d="M58.1656 114.264L58.2982 114.937C58.3764 115.326 58.6067 115.583 58.9892 115.707C60.0942 116.069 60.8643 115.802 61.2995 114.909C61.4627 114.571 61.8784 114.604 62.1691 114.722C62.317 114.785 62.3892 114.922 62.3858 115.136C62.379 115.411 62.2736 115.636 62.0696 115.811C61.2256 116.531 60.0934 117.209 58.979 116.677C58.1044 116.259 57.245 115.909 56.99 114.889C56.7792 114.046 56.8625 113.131 57.2399 112.145C57.2671 112.073 57.3173 112.022 57.3904 111.991C57.8477 111.8 58.2812 111.556 58.6909 111.258C59.7083 110.518 60.7895 111.208 61.6412 111.863C62.2753 112.352 62.5363 112.984 62.4241 113.76C62.4105 113.856 62.3561 113.909 62.2609 113.919C61.223 114.04 59.716 114.158 58.645 113.833C58.2421 113.712 58.0823 113.856 58.1656 114.264ZM60.8634 112.465C60.8619 112.289 60.7355 112.122 60.512 111.999C60.2885 111.877 59.9863 111.81 59.6719 111.813C59.3574 111.815 59.0564 111.888 58.8352 112.014C58.6139 112.14 58.4905 112.31 58.492 112.485C58.4936 112.661 58.62 112.828 58.8435 112.951C59.0669 113.073 59.3691 113.14 59.6836 113.138C59.9981 113.135 60.299 113.063 60.5203 112.936C60.7416 112.81 60.865 112.641 60.8634 112.465Z" fill="white"/>
<path d="M64.7216 116.201C64.6716 116.166 64.612 116.147 64.5506 116.146C64.4893 116.145 64.4291 116.163 64.378 116.196C64.3269 116.23 64.2873 116.278 64.2644 116.334C64.2416 116.39 64.2365 116.452 64.2499 116.511C64.3893 117.116 64.4369 117.691 64.3927 118.237C64.3864 118.317 64.3505 118.391 64.2917 118.447C64.2329 118.502 64.1553 118.534 64.0739 118.537C64.028 118.539 63.983 118.533 63.9388 118.519C63.8062 118.481 63.7356 118.393 63.7271 118.257C63.694 117.683 63.6251 117.101 63.6379 116.521C63.6685 115.262 63.7152 114 63.7781 112.737C63.8011 112.271 63.7067 111.939 63.5333 111.528C63.5225 111.502 63.5193 111.474 63.5242 111.447C63.5292 111.42 63.542 111.395 63.5611 111.374C63.5802 111.354 63.6049 111.34 63.6321 111.333C63.6593 111.326 63.6878 111.327 63.7144 111.336L64.3595 111.548C64.4649 111.583 64.5703 111.58 64.6757 111.538C65.3234 111.281 66.1879 110.835 66.8815 110.984C68.2721 111.281 69.0677 112.054 69.2683 113.304C69.6967 116 67.0447 117.849 64.7216 116.201ZM66.2219 115.864C66.4596 115.905 66.7041 115.896 66.9413 115.836C67.1785 115.776 67.4038 115.667 67.6042 115.515C67.8047 115.363 67.9765 115.171 68.1098 114.95C68.2431 114.729 68.3352 114.483 68.381 114.227C68.4734 113.709 68.3713 113.179 68.0971 112.754C67.8229 112.328 67.399 112.042 66.9188 111.959C66.6811 111.917 66.4366 111.927 66.1994 111.987C65.9622 112.046 65.737 112.155 65.5365 112.307C65.336 112.46 65.1642 112.652 65.0309 112.873C64.8976 113.094 64.8055 113.339 64.7597 113.596C64.6673 114.114 64.7694 114.644 65.0436 115.069C65.3178 115.494 65.7417 115.78 66.2219 115.864Z" fill="white"/>
<path d="M77.6245 115.534C77.7393 114.944 76.7779 114.156 76.324 113.901C75.5743 113.48 75.3015 112.684 75.6534 111.876C76.2118 110.596 77.3568 110.744 78.3564 111.404C78.4278 111.452 78.4626 111.518 78.4609 111.604C78.4609 111.824 78.4108 112.038 78.3105 112.246C78.2136 112.451 78.0946 112.464 77.9535 112.286C77.7359 112.011 77.4673 111.849 77.1477 111.8C76.7074 111.733 76.517 111.918 76.5765 112.354C76.6402 112.803 77.0151 113.171 77.3797 113.412C78.2901 114.01 79.2438 114.99 78.3691 116.08C77.8115 116.776 77.0856 117.032 76.1914 116.849C75.6202 116.733 75.5871 115.874 75.6457 115.438C75.6502 115.406 75.6631 115.375 75.6832 115.349C75.7033 115.324 75.7299 115.303 75.7603 115.291C75.7907 115.279 75.824 115.274 75.8566 115.278C75.8893 115.282 75.9203 115.295 75.9466 115.315C76.2696 115.553 76.6343 115.739 77.0406 115.874C77.1015 115.894 77.1661 115.901 77.23 115.894C77.294 115.888 77.3557 115.868 77.4111 115.835C77.4664 115.803 77.5141 115.76 77.551 115.707C77.5878 115.655 77.6129 115.596 77.6245 115.534Z" fill="white"/>
<path d="M81.1665 113.669C81.1228 113.679 81.0825 113.699 81.0494 113.727C81.0163 113.756 80.9916 113.793 80.9778 113.833C80.3913 115.504 82.1737 116.332 83.4615 115.584C83.5414 115.537 83.6026 115.473 83.6451 115.393C83.8771 114.949 83.9511 114.342 84.6804 114.632C84.7654 114.667 84.8215 114.728 84.8487 114.813C85.0102 115.315 84.8682 115.73 84.4228 116.058C83.6553 116.622 82.6149 117.101 81.6841 116.688C80.9421 116.355 80.1847 115.927 79.8252 115.176C79.3381 114.161 79.2259 112.637 80.2791 111.981C81.1843 111.417 81.9238 110.505 83.1121 111.115C84.1984 111.672 84.9889 112.332 85.2388 113.523C85.2479 113.567 85.2477 113.613 85.2382 113.656C85.2286 113.7 85.2099 113.741 85.1833 113.778C85.1567 113.814 85.1227 113.844 85.0835 113.867C85.0443 113.89 85.0008 113.904 84.9558 113.909C83.9834 114.023 82.9923 114.056 81.9825 114.007C81.8006 113.999 81.6433 113.921 81.5107 113.775C81.4215 113.677 81.2991 113.639 81.1665 113.669ZM82.2859 111.772C82.2022 111.765 82.1182 111.782 82.0437 111.82L81.447 112.128C81.3636 112.171 81.2963 112.239 81.2546 112.323C81.2129 112.406 81.199 112.5 81.2149 112.592C81.2307 112.684 81.2755 112.768 81.3429 112.833C81.4102 112.898 81.4966 112.94 81.5898 112.954L82.9209 113.138C82.9793 113.146 83.0389 113.143 83.096 113.128C83.1532 113.113 83.2068 113.087 83.2538 113.052C83.3007 113.016 83.3401 112.972 83.3696 112.922C83.3992 112.871 83.4182 112.815 83.4258 112.757L83.4819 112.334C83.4897 112.275 83.4852 112.215 83.4689 112.158C83.4525 112.1 83.4245 112.047 83.3866 112C83.3487 111.954 83.3017 111.916 83.2484 111.888C83.195 111.86 83.1365 111.843 83.0764 111.838L82.2859 111.772Z" fill="white"/>
<path d="M110.642 111.742C110.608 111.712 110.583 111.677 110.566 111.636C110.528 111.549 110.554 111.49 110.645 111.46C111.56 111.135 112.932 110.568 113.758 111.231C113.869 111.32 113.855 111.38 113.717 111.412C112.376 111.735 111.565 113.022 111.698 114.375C111.754 114.958 111.793 115.558 111.815 116.176C111.825 116.458 111.687 116.594 111.399 116.582C111.394 116.582 111.298 116.578 111.111 116.572C110.815 116.56 110.674 116.407 110.688 116.113C110.724 115.394 110.7 114.694 110.617 114.012C110.532 113.304 110.757 112.604 110.716 111.896C110.714 111.866 110.707 111.837 110.694 111.811C110.682 111.785 110.664 111.761 110.642 111.742Z" fill="white"/>
<path d="M140.913 111.929C139.99 111.813 138.998 113.075 138.899 113.886C138.784 114.828 140.61 116.683 141.538 115.816C142.048 115.335 142.624 114.974 143.325 114.876C143.362 114.871 143.4 114.88 143.43 114.9C143.461 114.921 143.483 114.952 143.491 114.987C143.561 115.273 143.477 115.52 143.239 115.73C142.366 116.499 141.563 117.066 141.301 118.285C141.282 118.369 141.239 118.439 141.173 118.497C140.864 118.762 140.479 118.851 140.02 118.764C139.978 118.756 139.939 118.736 139.909 118.706C139.878 118.676 139.858 118.638 139.849 118.596C139.841 118.554 139.845 118.511 139.861 118.471C139.878 118.431 139.906 118.397 139.941 118.373C140.428 118.048 141.173 117.04 140.168 116.725C139.243 116.436 138.695 115.98 138.279 115.085C136.881 112.067 140.819 109.631 143.116 111.74C143.393 111.993 143.51 112.316 143.466 112.707C143.462 112.743 143.45 112.777 143.43 112.808C143.411 112.838 143.384 112.864 143.353 112.882C143.322 112.901 143.287 112.913 143.251 112.916C143.215 112.919 143.178 112.914 143.144 112.901C142.405 112.616 141.691 112.027 140.913 111.929Z" fill="white"/>
<path d="M99.6442 111.059L99.5218 111.06C99.3021 111.061 99.1253 111.238 99.1268 111.456L99.1612 116.318C99.1627 116.535 99.342 116.71 99.5617 116.708L99.6841 116.707C99.9038 116.706 100.081 116.529 100.079 116.311L100.045 111.449C100.043 111.232 99.8639 111.057 99.6442 111.059Z" fill="white"/>
<path d="M115.196 114.428C115.274 114.612 115.342 114.799 115.4 114.987C115.601 115.64 116.046 115.955 116.736 115.932C117.367 115.91 117.793 115.711 118.014 115.335C118.252 114.93 118.591 114.613 119.031 114.385C119.047 114.377 119.065 114.372 119.083 114.371C119.101 114.37 119.119 114.373 119.136 114.38C119.153 114.387 119.168 114.397 119.18 114.41C119.192 114.423 119.202 114.439 119.207 114.455C119.541 115.458 118.843 116.287 117.935 116.63C116.935 117.008 115.937 116.851 114.941 116.161C114.306 115.723 114.023 114.929 113.827 114.221C113.62 113.468 114.11 112.838 114.266 112.133C114.289 112.028 114.351 111.955 114.449 111.913C114.991 111.678 115.512 111.43 116.012 111.17C116.905 110.702 117.825 111.379 118.557 111.803C119.511 112.352 119.728 113.113 119.21 114.085C119.164 114.172 119.093 114.204 118.996 114.181C118.649 114.098 118.351 113.984 117.983 113.997C117.161 114.025 116.392 113.973 115.678 113.841C115.15 113.742 114.989 113.937 115.196 114.428ZM117.963 112.459C117.963 112.379 117.93 112.3 117.868 112.226C117.805 112.152 117.714 112.086 117.599 112.029C117.484 111.973 117.348 111.929 117.198 111.899C117.048 111.87 116.888 111.855 116.726 111.855C116.398 111.857 116.085 111.923 115.854 112.039C115.623 112.154 115.494 112.31 115.495 112.471C115.495 112.552 115.527 112.631 115.59 112.704C115.652 112.778 115.743 112.845 115.858 112.901C115.973 112.957 116.11 113.001 116.259 113.031C116.409 113.061 116.57 113.076 116.732 113.075C117.059 113.073 117.373 113.007 117.604 112.892C117.835 112.776 117.964 112.62 117.963 112.459Z" fill="white"/>
<path d="M136.703 115.67C136.705 115.805 136.68 115.94 136.629 116.066C136.579 116.192 136.503 116.307 136.408 116.405C136.312 116.502 136.198 116.58 136.072 116.633C135.946 116.687 135.81 116.716 135.673 116.718L133.995 116.74C133.2 116.752 132.433 116.462 131.863 115.934C131.293 115.407 130.966 114.686 130.955 113.929C130.95 113.554 131.022 113.182 131.168 112.833C131.313 112.484 131.53 112.167 131.804 111.897C132.079 111.628 132.407 111.413 132.768 111.265C133.13 111.116 133.519 111.037 133.913 111.032L135.591 111.009C135.728 111.007 135.865 111.032 135.992 111.082C136.12 111.132 136.236 111.206 136.335 111.301C136.433 111.395 136.512 111.508 136.567 111.633C136.621 111.757 136.65 111.891 136.652 112.027L136.703 115.67ZM134.737 112.193C133.714 111.415 132.924 112.049 132.317 112.929C132.026 113.344 131.583 113.76 131.955 114.309C132.401 114.964 132.937 115.944 133.847 115.922C134.854 115.896 135.553 115.103 135.66 114.153C135.737 113.465 135.28 112.604 134.737 112.193Z" fill="white"/>
<path d="M148.816 111.276C149.353 111.494 149.911 111.497 150.491 111.284C150.512 111.275 150.536 111.273 150.558 111.277C150.581 111.281 150.602 111.292 150.619 111.307C150.636 111.322 150.649 111.341 150.655 111.363C150.662 111.385 150.662 111.408 150.657 111.43C150.55 111.866 150.371 112.264 150.399 112.722C150.445 113.48 150.442 114.252 150.389 115.04C150.358 115.491 150.519 115.924 150.652 116.353C150.66 116.379 150.66 116.407 150.654 116.433C150.647 116.46 150.633 116.484 150.613 116.504C150.594 116.523 150.569 116.537 150.542 116.544C150.515 116.55 150.487 116.55 150.46 116.541C149.996 116.393 149.53 116.332 149.053 116.466C148.255 116.693 147.303 117.038 146.513 116.65C144.95 115.876 144.363 114.874 144.664 113.188C144.781 112.526 145.122 112 145.687 111.609C146.664 110.933 147.707 110.823 148.816 111.276ZM147.634 115.883C148.125 115.831 148.574 115.573 148.881 115.166C149.188 114.758 149.328 114.235 149.272 113.711C149.244 113.451 149.168 113.199 149.049 112.969C148.93 112.739 148.77 112.536 148.578 112.37C148.387 112.205 148.167 112.081 147.931 112.005C147.696 111.93 147.45 111.904 147.207 111.93C146.716 111.982 146.268 112.239 145.961 112.647C145.654 113.054 145.513 113.577 145.57 114.102C145.598 114.361 145.673 114.613 145.792 114.843C145.911 115.073 146.071 115.277 146.263 115.442C146.455 115.607 146.675 115.731 146.91 115.807C147.145 115.883 147.391 115.908 147.634 115.883Z" fill="white"/>
<path d="M160.591 111.122C161.372 110.742 162.425 111.15 162.988 111.729C163.25 112 163.552 112.211 163.894 112.364C163.99 112.408 164.04 112.482 164.041 112.586C164.047 113.1 164.126 113.707 163.917 114.196C163.804 114.46 163.811 114.749 163.937 115.065C163.977 115.164 163.984 115.273 163.959 115.377C163.934 115.481 163.877 115.575 163.797 115.647C163.162 116.209 162.636 116.806 161.713 116.836C159.951 116.894 158.73 115.652 158.393 114.057C158.141 112.85 159.61 111.603 160.591 111.122ZM160.543 113.019L162.211 113.06C162.289 113.061 162.364 113.032 162.42 112.978C162.477 112.925 162.509 112.852 162.511 112.775L162.514 112.727C162.517 112.602 162.495 112.478 162.447 112.361C162.4 112.245 162.329 112.138 162.238 112.047C162.147 111.957 162.039 111.884 161.919 111.833C161.798 111.783 161.669 111.755 161.537 111.752L161.277 111.747C161.012 111.741 160.756 111.834 160.564 112.008C160.372 112.181 160.261 112.42 160.255 112.672V112.719C160.254 112.758 160.26 112.796 160.274 112.832C160.288 112.868 160.309 112.901 160.336 112.928C160.363 112.956 160.395 112.979 160.43 112.994C160.466 113.01 160.504 113.018 160.543 113.019ZM163.44 114.37C163.182 114.077 162.871 113.906 162.466 113.954C161.631 114.056 160.817 114.015 160.025 113.831C159.595 113.73 159.48 113.874 159.678 114.264L160.252 115.38C160.344 115.56 160.487 115.71 160.663 115.811C160.839 115.912 161.041 115.96 161.244 115.949C162.285 115.894 162.69 115.194 163.414 114.632C163.434 114.616 163.45 114.597 163.462 114.575C163.474 114.554 163.481 114.53 163.483 114.505C163.486 114.481 163.483 114.456 163.476 114.433C163.468 114.41 163.456 114.388 163.44 114.37Z" fill="white"/>
<path d="M166.257 111.876C166.17 111.925 166.105 112.006 166.076 112.102C166.047 112.198 166.056 112.3 166.102 112.39C166.5 113.173 167.135 113.614 167.841 114.095C168.427 114.496 168.402 115.317 168.078 115.839C167.442 116.861 166.533 117.129 165.35 116.642C165.227 116.592 165.123 116.506 165.051 116.395C164.979 116.285 164.944 116.156 164.949 116.025L164.957 115.856C164.972 115.478 165.163 115.345 165.531 115.456L166.75 115.826C166.823 115.848 166.901 115.851 166.976 115.832C167.051 115.814 167.119 115.775 167.173 115.721C167.227 115.667 167.265 115.6 167.283 115.526C167.301 115.452 167.298 115.374 167.275 115.302C167.094 114.735 166.441 114.375 165.979 114.022C165.097 113.349 164.735 112.276 165.574 111.374C166.16 110.744 167.67 110.797 167.966 111.727C168.049 111.984 168.099 112.244 168.116 112.508C168.133 112.765 168.065 112.79 167.912 112.584C167.606 112.175 166.806 111.563 166.257 111.876Z" fill="white"/>
<path d="M95.5288 116.758C94.783 116.829 94.0383 116.595 93.4586 116.109C92.8789 115.623 92.5117 114.924 92.4378 114.166C92.4013 113.791 92.4378 113.412 92.5453 113.052C92.6528 112.692 92.8293 112.357 93.0646 112.066C93.2998 111.776 93.5894 111.536 93.9166 111.36C94.2438 111.184 94.6023 111.075 94.9716 111.04C95.7175 110.969 96.4622 111.202 97.0419 111.688C97.6216 112.174 97.9887 112.873 98.0626 113.631C98.0992 114.007 98.0627 114.385 97.9552 114.746C97.8476 115.106 97.6712 115.441 97.4359 115.731C97.2006 116.021 96.9111 116.261 96.5839 116.438C96.2567 116.614 95.8982 116.722 95.5288 116.758ZM95.4176 115.938C95.6509 115.919 95.8777 115.849 96.0849 115.732C96.2922 115.615 96.4759 115.453 96.6255 115.255C96.7752 115.058 96.8878 114.829 96.9571 114.581C97.0264 114.334 97.0509 114.073 97.0292 113.812C96.9855 113.287 96.7564 112.798 96.3924 112.454C96.0283 112.109 95.5591 111.937 95.0879 111.976C94.8546 111.994 94.6279 112.064 94.4207 112.182C94.2134 112.299 94.0297 112.46 93.8801 112.658C93.7304 112.855 93.6177 113.084 93.5485 113.332C93.4792 113.579 93.4547 113.841 93.4763 114.101C93.52 114.626 93.7491 115.115 94.1132 115.46C94.4773 115.804 94.9465 115.976 95.4176 115.938Z" fill="white"/>
</svg>
