<svg width="164" height="104" viewBox="0 0 164 104" fill="none" xmlns="http://www.w3.org/2000/svg">
<path d="M106.284 18.9417C106.621 18.9363 106.91 19.1224 107.154 19.5C107.3 19.7083 107.467 19.8688 107.656 19.9817C107.961 20.1617 108.148 20.2833 108.217 20.3465C108.409 20.5212 108.603 20.6911 108.8 20.8564C108.99 21.0163 109.275 21.06 109.657 20.9874L111.778 22.0516C111.598 22.1457 111.586 22.2653 111.741 22.4104C111.884 22.5421 112.039 22.6569 112.209 22.755C113.898 23.7319 115.578 24.7107 117.25 25.6916C118.662 26.518 120.526 27.7817 122.235 28.7169C122.598 28.9158 123.224 29.2853 124.115 29.8254C124.758 30.2151 125.407 30.5497 126.063 30.8291C126.66 30.9756 127.25 31.3189 127.834 31.8591C128.277 32.4866 128.818 32.7647 129.458 32.6935C129.548 32.8131 129.656 32.9367 129.781 33.0643C129.884 33.1678 130.017 33.2571 130.179 33.3324C130.77 33.6052 131.32 33.927 131.831 34.2978C132.034 34.4859 132.494 34.7876 133.213 35.2028C133.439 35.3318 133.56 35.5857 133.578 35.9646C133.623 36.8756 133.633 37.7188 133.609 38.4941C133.607 38.546 133.585 38.5952 133.547 38.6313C133.509 38.6674 133.459 38.6876 133.406 38.6876L118.461 38.7279C118.286 38.7279 118.189 38.6432 118.168 38.4739C118.041 37.4218 118.64 36.5552 117.467 35.8598C114.027 33.8175 110.703 31.8658 107.496 30.0048C106.526 29.4418 105.568 28.8365 104.622 28.1888C103.218 27.2294 101.627 26.4978 100.132 25.5989C96.6049 23.4799 93.1746 21.3744 89.8413 19.2823C87.9553 18.0985 86.014 16.9692 84.0173 15.8942C83.431 15.5778 82.6704 15.9245 82.1189 16.247C79.1054 18.0005 76.0796 19.9253 73.1051 21.6828C69.4096 23.8649 65.8057 26.0007 62.2934 28.0901C59.0851 29.9967 55.4977 31.98 52.6871 33.8302C51.3109 34.7372 49.9667 35.536 48.6547 36.2267C48.3377 36.3946 48.1928 36.6338 48.2201 36.9442C48.2625 37.4104 48.3008 37.8706 48.3349 38.3248C48.3394 38.3918 48.3182 38.458 48.2757 38.5103C48.2332 38.5625 48.1724 38.597 48.1053 38.607C47.3468 38.7218 46.576 38.8065 45.7991 38.8065C41.5494 38.8045 37.2772 38.8146 33.0173 38.7017C32.9842 38.7008 32.9525 38.6878 32.9283 38.6651C32.9041 38.6424 32.8891 38.6117 32.8861 38.5787C32.8164 37.6946 32.8082 36.8676 32.8615 36.0977C32.882 35.8128 33.0297 35.5877 33.3044 35.4225C39.9327 31.4479 47.0387 27.2053 54.6223 22.6946C63.7735 17.2527 73.2356 11.5952 83.0087 5.722C83.2301 5.58898 83.4726 5.58293 83.7364 5.70386C84.6398 6.11502 85.511 6.58329 86.3501 7.10867C88.4685 8.43756 90.5889 9.76309 92.7113 11.0853C93.6065 11.6429 94.4996 12.1407 95.3906 12.5787C95.4325 12.599 95.479 12.6085 95.5256 12.6063C95.5722 12.6042 95.6175 12.5904 95.6571 12.5664C95.6967 12.5424 95.7293 12.5089 95.7519 12.4691C95.7745 12.4293 95.7864 12.3845 95.7863 12.3389L95.7761 2.81968C95.7761 2.7427 95.8069 2.66888 95.8619 2.61445C95.9169 2.56002 95.9915 2.52944 96.0692 2.52944L103.781 2.49316C103.871 2.49316 103.957 2.52814 104.021 2.59044C104.085 2.65275 104.121 2.73734 104.122 2.82572C104.153 7.7113 104.182 12.6144 104.21 17.5349C104.21 17.6639 104.304 17.817 104.493 17.9944C105.042 18.5077 105.639 18.8235 106.284 18.9417Z" fill="#6FBE44"/>
<path d="M131.831 34.2978C131.32 33.927 130.77 33.6052 130.179 33.3324C130.017 33.2571 129.884 33.1678 129.781 33.0643C129.656 32.9367 129.548 32.8131 129.458 32.6935C129.479 32.3482 129.505 31.5366 129.535 30.2587C129.56 29.2792 129.041 29.3377 128.469 28.8801C126.854 27.5862 125.271 25.9194 124.296 24.0389C124.193 23.8427 124.041 23.7897 123.841 23.8797C123.773 23.9098 123.717 23.9593 123.678 24.0216C123.64 24.0839 123.623 24.156 123.627 24.2284C123.644 24.4904 123.72 24.7282 123.857 24.9418C124.966 26.6873 126.583 28.1203 128.092 29.6017C128.269 29.7737 128.452 29.9295 128.644 30.0693C129.47 30.6719 128.754 31.2605 128.146 31.5104C128.065 31.544 127.961 31.6602 127.834 31.8591C127.25 31.3189 126.66 30.9756 126.063 30.8291C126.281 30.4032 126.295 30.0451 126.104 29.7549C125.485 28.8177 125.087 28.2694 123.994 27.5822C123.24 27.1085 122.229 27.1488 121.364 26.9291C120.797 26.7854 120.307 26.481 119.894 26.0161C119.828 25.9416 119.788 25.8474 119.782 25.748C119.756 25.4081 119.777 25.0937 119.847 24.8048C120.201 23.3254 120.955 21.6237 122.108 19.6995C122.268 19.4308 122.357 19.15 122.375 18.857C122.376 18.8354 122.373 18.8138 122.365 18.7936C122.356 18.7735 122.344 18.7554 122.328 18.7406C122.312 18.7257 122.293 18.7146 122.272 18.7079C122.251 18.7012 122.229 18.6991 122.207 18.7018C121.799 18.7502 121.393 18.806 120.987 18.8691C119.318 19.1271 118.357 18.0367 117.33 16.9987C117.292 16.9602 117.245 16.9302 117.194 16.9109C117.143 16.8917 117.088 16.8836 117.034 16.8872C116.979 16.8909 116.926 16.9062 116.878 16.932C116.83 16.9579 116.788 16.9937 116.756 17.037C115.272 19.0257 113.612 20.6972 111.778 22.0516L109.657 20.9874C109.98 20.6461 109.962 20.3586 109.601 20.1248C108.821 19.6196 108.005 19.4113 107.154 19.5C106.91 19.1224 106.621 18.9363 106.284 18.9417C106.559 18.1798 107.041 17.6256 107.732 17.2789C107.758 17.2661 107.787 17.2611 107.816 17.2645C107.844 17.2679 107.872 17.2796 107.894 17.2981C107.916 17.3166 107.932 17.3411 107.94 17.3685C107.948 17.3959 107.947 17.425 107.939 17.4522L107.723 18.1153C107.7 18.1879 107.698 18.2605 107.717 18.333C107.824 18.7428 108.105 19.0055 108.56 19.1211C109.394 19.3327 110.245 19.3911 110.997 19.8164C111.066 19.8554 111.132 19.852 111.196 19.8063C112.426 18.9235 113.494 17.1761 114.132 15.6766C114.314 15.2493 114.505 14.8012 114.706 14.3322C114.752 14.2234 114.759 14.1099 114.726 13.9916C114.706 13.9191 114.657 13.8575 114.591 13.8198C114.524 13.7822 114.446 13.7715 114.372 13.7901C113.497 14.0091 112.795 13.7934 112.266 13.1431C111.225 11.8612 110.893 9.87797 112.328 8.75533C113.75 7.64076 115.218 9.18464 115.817 10.3355C115.985 10.658 116.352 10.7829 116.69 10.8273C119.843 11.2425 123.236 12.1111 125.575 14.048C127.061 15.2795 128.461 17.2587 128.84 19.1634C128.984 19.8809 128.447 20.0301 127.975 20.3324C127.903 20.3781 127.865 20.4426 127.861 20.5259C127.838 20.9511 128.01 21.3603 128.041 21.7876C128.146 23.2629 128.314 24.7 129.255 25.9073C129.864 26.6893 130.429 27.4129 130.95 28.078C131.646 28.9648 132.013 29.8415 132.053 30.7082C132.09 31.4741 132.112 32.2178 132.12 32.9394C132.127 33.413 131.987 33.8463 131.831 34.2978Z" fill="#349D3F"/>
<path d="M48.6999 50.7C48.5536 51.2697 48.5249 51.8703 48.6138 52.5018C48.5167 53.8818 48.5153 55.2355 48.6096 56.5631C48.0411 56.4113 47.3154 56.3279 46.4326 56.3132C45.2538 56.293 44.524 55.5271 44.2288 54.4287C43.9855 53.5298 43.7778 52.5751 43.6056 51.5646C43.5701 51.355 43.4512 51.226 43.2489 51.1777C43.1368 51.1508 43.0958 51.0823 43.1259 50.9721C43.1874 50.7531 43.2011 50.5199 43.1669 50.2727C43.145 50.1141 43.2154 50.0402 43.3781 50.051C43.9165 50.0859 44.5172 49.9697 45.18 49.7023C45.6802 49.5008 45.8387 49.0916 45.6556 48.4749C45.5941 48.2679 45.4554 48.186 45.2394 48.229C44.3279 48.409 43.4935 48.6294 42.7364 48.8901C42.5 48.9707 42.3906 49.1339 42.4084 49.3798C42.4412 49.8313 42.2854 50.4198 42.6585 50.7544C42.7173 50.8068 42.7337 50.87 42.7077 50.9439C42.6749 51.042 42.6599 51.1421 42.6626 51.2442C42.6845 52.4266 42.815 53.6204 43.0542 54.8257C43.1922 55.5244 43.4628 56.1714 43.8659 56.7667C44.2664 57.3538 44.7003 57.9094 45.1677 58.4335C45.18 58.4469 45.5504 58.7996 46.2788 59.4916C46.7093 59.9001 47.0462 60.3079 47.2894 60.715C47.97 61.8545 48.2734 63.0826 48.1996 64.3994C44.608 64.3806 41.0663 64.3947 37.5745 64.4417C36.1313 64.4598 34.6696 64.3893 33.2387 64.3429C33.0583 64.3376 32.9661 64.2455 32.962 64.0668C32.9388 63.0523 32.9237 62.0889 32.9169 61.1766C32.8773 55.333 32.8725 49.1689 32.9025 42.6843C32.9066 41.9446 32.8369 41.207 32.8349 40.4874C32.8347 40.4486 32.8428 40.4101 32.8587 40.3746C32.8745 40.339 32.8978 40.3071 32.9269 40.2809C32.9561 40.2547 32.9905 40.2348 33.028 40.2224C33.0654 40.2101 33.1051 40.2056 33.1444 40.2093C33.4786 40.2395 33.7881 40.2798 34.1284 40.2577C36.0131 40.1381 37.9251 40.0964 39.8644 40.1327C42.7057 40.1871 45.4649 40.1428 48.2673 40.0299C48.2987 40.0286 48.3301 40.0333 48.3596 40.0438C48.3891 40.0544 48.4162 40.0705 48.4392 40.0913C48.4623 40.1121 48.4809 40.1372 48.494 40.165C48.507 40.1929 48.5143 40.223 48.5154 40.2536C48.6056 42.5432 48.691 44.8295 48.7716 47.1124C48.8112 48.2599 48.7873 49.4558 48.6999 50.7Z" fill="#349D3F"/>
<path d="M48.1996 64.3994C48.2734 63.0826 47.97 61.8545 47.2894 60.715C47.0462 60.3079 46.7093 59.9001 46.2788 59.4916C45.5504 58.7996 45.18 58.4469 45.1677 58.4335C44.7003 57.9094 44.2664 57.3538 43.8659 56.7667C43.4628 56.1714 43.1922 55.5244 43.0542 54.8257C42.815 53.6204 42.6845 52.4266 42.6626 51.2442C42.6599 51.1421 42.6749 51.042 42.7077 50.9439C42.7337 50.87 42.7173 50.8068 42.6585 50.7544C42.2854 50.4198 42.4412 49.8313 42.4084 49.3798C42.3906 49.1339 42.5 48.9707 42.7364 48.8901C43.4935 48.6294 44.3279 48.409 45.2394 48.229C45.4554 48.186 45.5941 48.2679 45.6556 48.4749C45.8387 49.0916 45.6802 49.5008 45.18 49.7023C44.5172 49.9697 43.9165 50.0859 43.3781 50.051C43.2154 50.0402 43.145 50.1141 43.1669 50.2727C43.2011 50.5199 43.1874 50.7531 43.1259 50.9721C43.0958 51.0823 43.1368 51.1508 43.2489 51.1777C43.4512 51.226 43.5701 51.355 43.6056 51.5646C43.7778 52.5751 43.9855 53.5298 44.2288 54.4287C44.524 55.5271 45.2538 56.293 46.4326 56.3132C47.3154 56.3279 48.0411 56.4113 48.6096 56.5631C49.0217 56.7505 49.8479 57.2161 49.9934 56.4462C50.1492 55.6131 50.1267 54.7572 49.9258 53.8784C49.7884 53.2758 49.1324 52.8525 48.6138 52.5018C48.5249 51.8703 48.5536 51.2697 48.6999 50.7C49.1058 50.403 49.4467 49.9153 49.7228 49.2367C49.8677 48.8807 50.169 48.5347 50.6269 48.1987C51.8815 47.2756 53.1648 48.5535 53.5317 49.6882C53.7914 50.4931 53.9677 51.3738 54.0606 52.3305C54.0832 52.5542 54.0627 52.7659 53.8946 52.9332C53.0377 53.7938 52.724 54.729 53.0274 55.9987C53.1613 56.5577 53.3964 56.94 53.7326 57.1456C54.2615 57.468 54.8697 57.7119 55.5571 57.8772C56.3894 58.0774 57.0133 58.4778 57.4288 59.0784C57.9987 59.9034 58.4681 60.8897 58.8371 62.0372C59.2266 63.2525 59.2471 64.5727 59.0995 65.8525C59.095 65.8923 59.0756 65.9291 59.045 65.9558C59.0143 65.9826 58.9747 65.9975 58.9335 65.9977C57.0543 65.9977 55.2031 66.0145 53.38 66.048C51.7421 66.0763 50.0447 65.9694 48.3985 65.9009C48.3693 65.8999 48.3415 65.8882 48.3206 65.8681C48.2997 65.8479 48.2873 65.8208 48.2858 65.7921L48.1996 64.3994Z" fill="#6FBE44"/>
<path d="M77.1641 71.9536C77.4921 71.3234 77.8031 70.661 78.0969 69.9663C78.6996 68.5453 81.0038 69.6619 79.495 71.1917C79.0419 71.6492 78.4864 71.8528 78.0375 72.2821C77.7477 72.5575 77.4081 72.753 77.0186 72.8686C76.9986 72.8745 76.9774 72.875 76.9571 72.8703C76.9368 72.8655 76.9181 72.8556 76.903 72.8415C76.8878 72.8274 76.8767 72.8097 76.8707 72.79C76.8647 72.7703 76.8641 72.7495 76.8689 72.7295C76.94 72.4514 77.0384 72.1927 77.1641 71.9536Z" fill="#142216"/>
<path d="M122.871 70.1588L121.854 70.1606C121.353 70.1614 120.948 70.561 120.949 71.053L120.95 71.706C120.951 72.198 121.358 72.5961 121.858 72.5953L122.875 72.5935C123.375 72.5927 123.78 72.1931 123.779 71.7011L123.778 71.0481C123.777 70.5561 123.371 70.158 122.871 70.1588Z" fill="#142216"/>
<path d="M27.2445 76.5649C27.0668 76.5502 26.9698 76.6294 26.9534 76.8028C26.814 78.2056 26.8242 79.5378 26.9841 80.7995C27.0497 81.3135 27.47 81.4747 27.7734 81.8375C27.7954 81.8634 27.8093 81.8952 27.8132 81.9288C27.8172 81.9624 27.811 81.9964 27.7955 82.0266C27.7801 82.0568 27.756 82.0819 27.7261 82.0988C27.6963 82.1157 27.6622 82.1236 27.6278 82.1217C26.937 82.0894 26.2748 81.8355 25.586 81.8314C24.9485 81.8274 24.3171 82.0451 23.6795 82.1459C23.5702 82.1633 23.4663 82.16 23.3679 82.1358C23.3334 82.127 23.3016 82.11 23.2752 82.0864C23.2489 82.0628 23.2289 82.0332 23.2169 82.0004C23.205 81.9675 23.2015 81.9323 23.2067 81.8979C23.2119 81.8636 23.2258 81.831 23.247 81.8032C23.5176 81.4485 24.0075 81.0938 24.0362 80.6403C24.11 79.4605 24.1681 78.3339 24.2105 77.2603C24.2665 75.8776 24.2146 74.2982 24.0547 72.5218C24.0198 72.1349 24.0403 71.8345 23.616 71.6753C23.5513 71.6515 23.4929 71.6121 23.4458 71.5604C23.3187 71.4193 23.301 71.3125 23.3925 71.24C23.4445 71.1983 23.5039 71.1862 23.5709 71.2037C23.7431 71.2507 23.9153 71.2668 24.0875 71.2521C25.2095 71.154 26.3541 71.1069 27.5212 71.111C27.5566 71.111 27.5913 71.121 27.621 71.1398C27.6508 71.1586 27.6744 71.1854 27.6891 71.2171C27.7038 71.2487 27.709 71.2839 27.7039 71.3183C27.6988 71.3527 27.6838 71.385 27.6606 71.4113C27.5089 71.5819 27.3251 71.7183 27.1092 71.8204C27.0231 71.8607 26.9739 71.9279 26.9616 72.022C26.8003 73.2783 26.7839 74.5911 26.9124 75.9603C26.9165 76.0025 26.93 76.0434 26.9519 76.08C26.9738 76.1166 27.0035 76.1481 27.039 76.1723C27.0745 76.1965 27.115 76.2128 27.1575 76.22C27.2001 76.2272 27.2438 76.2253 27.2855 76.2142C27.7337 76.0973 28.2134 76.0752 28.7246 76.1477C29.3088 76.2304 29.8234 76.0308 30.381 76.1175C30.6256 76.1551 30.7493 76.0523 30.752 75.8091C30.7602 75.019 30.7595 74.2323 30.75 73.449C30.7377 72.3727 30.3707 72.0784 29.7045 71.3448C29.6848 71.3234 29.6719 71.2969 29.6674 71.2684C29.663 71.2399 29.6671 71.2108 29.6793 71.1846C29.6916 71.1584 29.7113 71.1363 29.7362 71.1211C29.7611 71.1058 29.79 71.0981 29.8193 71.0989C31.1285 71.1311 32.4973 71.1069 33.9254 71.0263C34.0607 71.0183 34.1824 71.0445 34.2903 71.1049C34.3127 71.1173 34.332 71.1343 34.347 71.1548C34.3619 71.1752 34.3721 71.1986 34.3768 71.2233C34.3815 71.2479 34.3806 71.2732 34.3742 71.2973C34.3677 71.3215 34.3559 71.3439 34.3395 71.3629C34.14 71.5994 33.9001 71.768 33.62 71.8688C33.5501 71.8935 33.4923 71.9431 33.458 72.0079C33.294 72.3062 33.212 72.6166 33.212 72.939C33.2093 75.3536 33.2093 77.8072 33.212 80.2997C33.2141 81.1865 33.9418 81.3094 34.3682 81.8939C34.3833 81.9147 34.3931 81.9388 34.3968 81.9641C34.4004 81.9895 34.3978 82.0153 34.3892 82.0394C34.3805 82.0635 34.3661 82.0852 34.3471 82.1027C34.3281 82.1202 34.3051 82.1329 34.2801 82.1398C33.8967 82.2426 32.9435 81.9665 32.5048 81.8597C32.144 81.773 31.6991 81.7992 31.3383 81.8879C30.8914 81.9987 30.135 82.2426 29.6983 82.17C29.6655 82.1646 29.635 82.1502 29.6102 82.1285C29.5854 82.1068 29.5673 82.0786 29.5581 82.0472C29.5489 82.0158 29.5489 81.9825 29.5581 81.9511C29.5673 81.9197 29.5854 81.8915 29.6102 81.8697C30.2436 81.3114 30.6967 80.9406 30.7274 80.0074C30.7602 79.0198 30.7671 77.9939 30.7479 76.9297C30.7473 76.8928 30.7383 76.8566 30.7216 76.8235C30.7049 76.7904 30.6809 76.7614 30.6513 76.7384C30.6217 76.7155 30.5873 76.6993 30.5505 76.6909C30.5136 76.6825 30.4754 76.6821 30.4384 76.6899C30.2511 76.7315 30.0707 76.7517 29.8972 76.7504C29.2015 76.7436 28.5114 76.7268 27.8267 76.7C27.6073 76.6919 27.4495 76.5831 27.2445 76.5649Z" fill="#142216"/>
<path d="M70.6308 77.0749C71.0859 77.2925 71.8054 77.2482 71.9981 77.7722C72.2715 78.5126 72.4751 79.2845 72.609 80.088C72.7361 80.8559 73.0211 81.0373 73.5684 81.4969C73.6154 81.5364 73.6498 81.5884 73.6677 81.6466C73.6856 81.7048 73.6861 81.7668 73.6693 81.8253C73.6525 81.8838 73.619 81.9363 73.5728 81.9767C73.5266 82.0171 73.4696 82.0436 73.4085 82.0531C72.691 82.162 71.4815 82.424 70.846 81.9806C70.2905 81.5936 69.8641 80.9547 69.7903 80.2634C69.6878 79.304 69.5006 78.4071 69.2286 77.5727C69.195 77.4719 69.1345 77.3817 69.0534 77.3116C68.9723 77.2414 68.8736 77.1938 68.7673 77.1736L67.8756 77.0083C67.7909 76.9936 67.7184 77.0164 67.6583 77.0769C67.4793 77.2596 67.3966 77.4994 67.4102 77.7964C67.454 78.7222 67.4642 79.6043 67.441 80.4428C67.4205 81.2409 68.017 81.4102 68.5213 81.8375C68.5369 81.8505 68.5488 81.8673 68.5559 81.8862C68.5629 81.9051 68.5649 81.9255 68.5616 81.9453C68.5583 81.9652 68.5499 81.9839 68.5371 81.9996C68.5243 82.0153 68.5075 82.0275 68.4885 82.035C68.1544 82.1721 67.2421 81.9443 66.869 81.8778C65.8522 81.6964 64.9195 82.0713 63.9396 82.1197C63.7783 82.1277 63.6382 82.082 63.5193 81.9826C63.5006 81.9672 63.4862 81.9472 63.4778 81.9247C63.4694 81.9021 63.4671 81.8778 63.4713 81.8541C63.4754 81.8304 63.4858 81.8082 63.5015 81.7897C63.5171 81.7712 63.5374 81.7571 63.5603 81.7488C63.9867 81.5916 64.7247 81.4525 64.7391 80.8962C64.8047 78.1525 64.7917 75.2394 64.7001 72.157C64.6837 71.629 64.204 71.5725 63.7961 71.4798C63.4667 71.4046 63.4558 71.2971 63.7633 71.1573C63.8672 71.109 64.0523 71.0908 64.3188 71.1029C65.4477 71.1513 66.5725 71.1499 67.6931 71.0989C69.3147 71.0263 71.459 71.1835 72.4922 72.6105C72.8366 73.0902 72.814 73.578 72.7894 74.1322C72.732 75.4866 71.6291 76.1276 70.6103 76.833C70.59 76.8472 70.5738 76.8663 70.5633 76.8885C70.5528 76.9107 70.5484 76.9353 70.5505 76.9597C70.5525 76.9841 70.561 77.0075 70.5751 77.0277C70.5892 77.0479 70.6084 77.0642 70.6308 77.0749ZM67.4123 72.0704L67.4615 76.057C67.4623 76.1187 67.4754 76.1796 67.5002 76.2363C67.5249 76.293 67.5608 76.3443 67.6057 76.3873C67.6506 76.4304 67.7038 76.4643 67.762 76.4872C67.8203 76.51 67.8826 76.5214 67.9453 76.5206L68.0457 76.5186C68.5881 76.5118 69.1055 76.2893 69.4841 75.9C69.8627 75.5107 70.0717 74.9865 70.065 74.4426L70.0547 73.6203C70.0481 73.0762 69.8263 72.5569 69.438 72.1767C69.0497 71.7964 68.5268 71.5864 67.9842 71.5927L67.8838 71.5947C67.8211 71.5955 67.7591 71.6084 67.7015 71.6327C67.6438 71.6571 67.5916 71.6923 67.5478 71.7365C67.504 71.7807 67.4695 71.8329 67.4463 71.8902C67.423 71.9475 67.4115 72.0087 67.4123 72.0704Z" fill="#142216"/>
<path d="M120.448 74.0858C120.543 74.0092 120.653 73.9743 120.778 73.981C121.684 74.0307 122.58 74.0206 123.465 73.9508C123.489 73.9491 123.513 73.9522 123.535 73.96C123.558 73.9678 123.578 73.9801 123.595 73.996C123.612 74.012 123.626 74.0313 123.635 74.0526C123.644 74.074 123.648 74.097 123.648 74.1201C123.6 76.2363 123.594 78.3519 123.629 80.4669C123.646 81.3476 124.525 81.4021 124.585 81.9523C124.601 82.0934 124.538 82.1565 124.394 82.1418C123.67 82.0712 123.037 81.781 122.291 81.8294C121.959 81.8509 121.606 81.9241 121.233 82.049C121.009 82.1236 120.542 82.168 120.401 81.914C120.358 81.8374 120.373 81.7595 120.444 81.6802C120.465 81.6563 120.491 81.6377 120.52 81.6258C120.952 81.4383 121.231 81.1763 121.21 80.7027C121.141 79.0983 121.135 77.4322 121.192 75.7042C121.212 75.1298 120.907 74.6481 120.464 74.2954C120.442 74.2781 120.416 74.2666 120.388 74.262C120.36 74.2574 120.331 74.2599 120.304 74.2692C119.991 74.3767 119.7 74.503 119.429 74.6481C119.173 74.7832 118.906 74.7187 118.658 74.6078C118.629 74.5944 118.597 74.5873 118.565 74.587C118.532 74.5868 118.5 74.5934 118.47 74.6063C118.441 74.6193 118.414 74.6384 118.392 74.6622C118.371 74.6861 118.354 74.7143 118.344 74.7449C118.267 74.9934 118.232 75.2548 118.24 75.5289C118.285 77.2501 118.288 78.9922 118.248 80.7551C118.245 80.8523 118.281 80.9473 118.347 81.0211C118.564 81.265 118.851 81.265 119.056 81.0373C119.318 80.747 119.628 80.5105 119.984 80.3278C119.997 80.3214 120.011 80.3185 120.026 80.3195C120.04 80.3205 120.053 80.3254 120.065 80.3335C120.077 80.3416 120.086 80.3527 120.092 80.3655C120.097 80.3784 120.099 80.3925 120.097 80.4064C119.982 81.138 119.558 82.0228 118.744 82.1619C117.91 82.303 116.805 82.309 116.284 81.529C115.981 81.0776 115.828 80.6335 115.827 80.1968C115.816 78.5454 115.804 76.7926 115.79 74.9383C115.79 74.8918 115.779 74.846 115.757 74.8047C115.735 74.7634 115.703 74.728 115.664 74.7013C115.625 74.6746 115.58 74.6575 115.533 74.6514C115.485 74.6453 115.437 74.6504 115.392 74.6663C115.12 74.7617 114.909 74.6757 114.757 74.4083C114.744 74.3864 114.738 74.3618 114.738 74.3367C114.737 74.3116 114.744 74.2869 114.756 74.2648C114.768 74.2427 114.785 74.2239 114.807 74.2103C114.828 74.1966 114.852 74.1884 114.878 74.1866L115.431 74.1442C115.517 74.1376 115.597 74.1009 115.656 74.0409C115.716 73.9809 115.752 73.9016 115.757 73.8177L115.85 72.1892C115.852 72.1527 115.867 72.1181 115.892 72.091C115.917 72.0639 115.95 72.0459 115.987 72.0401C116.26 71.9937 116.524 72.0259 116.789 71.9312C117.23 71.7713 117.696 71.7088 118.187 71.7438C118.209 71.7456 118.231 71.7517 118.25 71.7617C118.27 71.7717 118.288 71.7855 118.302 71.8022C118.316 71.8189 118.327 71.8382 118.334 71.859C118.34 71.8797 118.343 71.9016 118.34 71.9232C118.291 72.4714 118.125 73.4227 118.363 73.9467C118.403 74.0354 118.47 74.0697 118.566 74.0495C119.118 73.9326 119.695 73.9555 120.296 74.118C120.352 74.1342 120.403 74.1234 120.448 74.0858Z" fill="#142216"/>
<path d="M42.6573 78.8657C42.6542 79.7541 42.2922 80.6049 41.651 81.2309C41.0098 81.8569 40.142 82.2068 39.2384 82.2037L38.4553 82.201C38.0078 82.1995 37.5651 82.1113 37.1523 81.9416C36.7396 81.7718 36.3649 81.5238 36.0496 81.2116C35.7343 80.8995 35.4847 80.5294 35.3149 80.1224C35.1451 79.7154 35.0585 79.2795 35.0601 78.8396L35.0663 77.0942C35.0694 76.2058 35.4314 75.355 36.0726 74.729C36.7138 74.103 37.5816 73.753 38.4852 73.7561L39.2683 73.7588C39.7158 73.7603 40.1585 73.8485 40.5713 74.0183C40.984 74.188 41.3588 74.436 41.674 74.7482C41.9893 75.0603 42.239 75.4305 42.4087 75.8375C42.5785 76.2445 42.6651 76.6803 42.6635 77.1202L42.6573 78.8657ZM39.9258 75.5815C39.8417 75.2267 39.1119 73.7212 38.5051 74.4125C38.1566 74.8102 37.9202 75.224 37.7958 75.654C37.3899 77.0528 37.3551 78.4878 37.6913 79.9591C37.8963 80.856 38.0049 81.5091 39.0709 81.4567C39.6982 81.4264 39.9114 80.7593 39.9955 80.2594C40.2811 78.5503 40.2579 76.991 39.9258 75.5815Z" fill="#142216"/>
<path d="M50.2558 74.874L50.1574 75.7972C50.1331 76.0241 50.022 76.2335 49.8465 76.3828C49.671 76.5321 49.4443 76.6103 49.2124 76.6013L48.6425 76.5812C48.4292 76.573 48.2256 76.4918 48.0668 76.3516C47.9081 76.2113 47.8042 76.0209 47.7733 75.8133L47.6113 74.739C47.5895 74.5954 47.6035 74.4488 47.6519 74.3116C47.7003 74.1745 47.7818 74.0509 47.8894 73.9515C47.997 73.852 48.1274 73.7797 48.2697 73.7407C48.4119 73.7016 48.5616 73.697 48.706 73.7272L49.5363 73.9026C49.757 73.9487 49.9526 74.0734 50.0854 74.2527C50.2183 74.4321 50.279 74.6534 50.2558 74.874Z" fill="#142216"/>
<path d="M76.7888 77.3592C76.7501 77.3595 76.712 77.3683 76.6772 77.3849C76.6424 77.4015 76.6118 77.4254 76.5876 77.4549C76.5635 77.4845 76.5464 77.5189 76.5376 77.5557C76.5287 77.5924 76.5284 77.6307 76.5367 77.6675C76.646 78.1512 76.7697 78.6309 76.9077 79.1066C77.1537 79.9491 78.0024 80.9911 79.0028 80.6988C79.7108 80.4919 80.2513 80.1479 80.6244 79.6669C80.9086 79.3001 81.0446 79.3471 81.0323 79.808C81.0241 80.1688 80.7556 80.5033 80.5567 80.7916C79.9048 81.7335 78.9522 82.2091 77.699 82.2185C75.1673 82.2367 73.9557 79.7193 74.2099 77.5647C74.4108 75.8677 75.0504 74.4467 76.8544 73.9308C77.9997 73.6043 79.0015 73.699 79.8597 74.215C80.7146 74.7309 81.0631 76.2647 81.1123 77.1556C81.1137 77.1805 81.1099 77.2054 81.1011 77.2289C81.0924 77.2523 81.0789 77.2737 81.0614 77.2918C81.0439 77.31 81.0229 77.3244 80.9996 77.3342C80.9762 77.3441 80.9511 77.3491 80.9257 77.3491L76.7888 77.3592ZM77.2378 76.6396L78.4227 76.7303C78.4804 76.735 78.5386 76.7284 78.5937 76.711C78.6489 76.6936 78.7 76.6656 78.7442 76.6288C78.7884 76.5919 78.8247 76.5468 78.8512 76.4961C78.8776 76.4454 78.8936 76.3901 78.8983 76.3333L78.9003 76.301C78.938 75.8316 78.8658 75.373 78.6998 75.0261C78.5337 74.6791 78.2873 74.4722 78.0147 74.4508H78.0065C77.8715 74.4401 77.7342 74.4753 77.6023 74.5544C77.4704 74.6335 77.3466 74.755 77.2379 74.9118C77.1292 75.0687 77.0378 75.2578 76.9688 75.4685C76.8998 75.6792 76.8547 75.9073 76.836 76.1398L76.8339 76.172C76.8291 76.2288 76.8358 76.286 76.8535 76.3402C76.8713 76.3945 76.8997 76.4447 76.9372 76.4882C76.9747 76.5316 77.0206 76.5673 77.0721 76.5933C77.1237 76.6193 77.18 76.635 77.2378 76.6396Z" fill="#142216"/>
<path d="M98.8435 78.8108C98.8419 79.7158 98.4747 80.5831 97.8227 81.2219C97.1707 81.8607 96.2872 82.2187 95.3668 82.2171L94.6985 82.2159C93.778 82.2144 92.8959 81.8533 92.2461 81.2123C91.5964 80.5713 91.2323 79.7027 91.2339 78.7978L91.2368 77.1692C91.2384 76.2642 91.6056 75.397 92.2576 74.7582C92.9096 74.1194 93.793 73.7614 94.7135 73.7629L95.3818 73.7641C96.3023 73.7657 97.1844 74.1267 97.8341 74.7677C98.4839 75.4088 98.848 76.2773 98.8464 77.1823L98.8435 78.8108ZM95.05 81.626C95.4132 81.6266 95.7622 81.2412 96.0202 80.5544C96.2783 79.8677 96.4242 78.936 96.4259 77.9642C96.4268 77.483 96.3922 77.0064 96.3242 76.5617C96.2561 76.1171 96.156 75.713 96.0294 75.3725C95.9029 75.032 95.7524 74.7619 95.5866 74.5774C95.4208 74.393 95.2429 74.2979 95.063 74.2976C94.6998 74.297 94.3508 74.6824 94.0928 75.3692C93.8348 76.0559 93.6889 76.9876 93.6871 77.9594C93.6863 78.4406 93.7208 78.9172 93.7889 79.3619C93.8569 79.8065 93.9571 80.2106 94.0836 80.5511C94.2102 80.8916 94.3607 81.1617 94.5265 81.3462C94.6923 81.5306 94.8702 81.6257 95.05 81.626Z" fill="#142216"/>
<path d="M109.63 74.5051C109.736 74.7536 109.846 75.011 109.96 75.277C110.259 75.9844 109.876 76.3634 109.367 76.7503C108.886 77.1145 108.353 77.0654 107.768 76.6032C107.131 76.0973 107.402 75.2206 107.807 74.6744C107.978 74.4473 108.308 74.2478 108.798 74.0758C110.077 73.6283 111.299 73.631 112.465 74.0838C113.31 74.4124 113.597 75.2226 113.586 76.057C113.567 77.66 113.566 79.1548 113.582 80.5415C113.584 80.6295 113.609 80.7154 113.657 80.7897C113.704 80.864 113.771 80.9239 113.851 80.9627C114.18 81.1267 114.345 81.3806 114.345 81.7246C114.345 81.795 114.317 81.8626 114.269 81.9138C114.22 81.9651 114.153 81.9961 114.082 82.0007C113.458 82.041 112.852 82.0484 112.266 82.0229C111.561 81.9906 111.417 81.1401 110.649 81.4646C110.575 81.4955 110.524 81.5486 110.495 81.6238C110.415 81.8274 110.269 81.9745 110.038 81.9987C109.29 82.082 108.734 82.0793 108.369 81.9906C107.504 81.779 106.674 80.5879 107.141 79.6506C107.499 78.9318 108.065 78.4239 108.839 78.1269C109.619 77.8286 110.345 77.4927 111.016 77.1192C111.081 77.0826 111.131 77.0258 111.159 76.9579C111.525 76.063 111.369 75.2622 110.69 74.5555C110.454 74.3116 110.245 74.0617 109.849 74.1201C109.806 74.1266 109.766 74.1426 109.73 74.1668C109.695 74.1911 109.665 74.223 109.644 74.26C109.623 74.2971 109.611 74.3385 109.608 74.3809C109.606 74.4234 109.613 74.4658 109.63 74.5051ZM109.417 79.6748C109.352 79.8374 109.352 79.994 109.417 80.1445C109.743 80.9245 110.46 80.9305 111.11 80.5617C111.266 80.473 111.348 80.3258 111.356 80.1203C111.387 79.3893 111.373 78.7128 111.313 78.0907C111.309 78.0546 111.297 78.0198 111.278 77.9888C111.259 77.9578 111.233 77.9315 111.202 77.9116C111.171 77.8917 111.136 77.8788 111.1 77.8739C111.063 77.8689 111.026 77.8721 110.991 77.8831C110.091 78.1632 109.751 78.8162 109.417 79.6748Z" fill="#142216"/>
<path d="M132.976 78.7165C132.977 79.1707 132.888 79.6207 132.713 80.0409C132.537 80.4611 132.28 80.8433 131.954 81.1656C131.629 81.4879 131.242 81.744 130.816 81.9192C130.389 82.0945 129.932 82.1855 129.47 82.1871L128.823 82.1893C128.361 82.1909 127.903 82.103 127.475 81.9307C127.048 81.7583 126.659 81.5049 126.332 81.1849C126.004 80.8648 125.743 80.4845 125.565 80.0655C125.387 79.6464 125.294 79.197 125.293 78.7428L125.287 77.2312C125.286 76.777 125.375 76.327 125.55 75.9067C125.726 75.4865 125.983 75.1044 126.309 74.7821C126.634 74.4598 127.021 74.2037 127.447 74.0284C127.874 73.8532 128.331 73.7621 128.793 73.7605L129.44 73.7583C129.902 73.7567 130.36 73.8446 130.788 74.017C131.215 74.1893 131.604 74.4427 131.931 74.7628C132.259 75.0828 132.52 75.4632 132.698 75.8822C132.876 76.3012 132.969 76.7506 132.97 77.2048L132.976 78.7165ZM128.715 74.485C128.457 75.0655 128.049 75.3476 127.961 76.0006C127.822 77.0064 127.612 77.9154 127.801 78.9695C127.89 79.4613 127.981 79.9732 128.076 80.5053C128.215 81.2833 128.683 81.6004 129.478 81.4566C130.113 81.3417 130.265 80.4831 130.308 79.9591C130.403 78.8089 130.412 77.5351 130.337 76.1377C130.3 75.4363 129.933 74.878 129.445 74.3963C129.228 74.1827 128.853 74.1786 128.715 74.485Z" fill="#142216"/>
<path d="M137.475 75.0291C137.274 75.3758 137.17 75.7171 137.161 76.053C137.133 77.1763 137.134 78.35 137.166 79.5741C137.18 80.1062 137.036 80.6121 137.182 81.1321C137.201 81.1966 137.235 81.2517 137.284 81.2974L137.774 81.7428C137.802 81.7684 137.822 81.8012 137.832 81.8374C137.841 81.8736 137.84 81.9118 137.829 81.9475C137.818 81.9833 137.796 82.0151 137.768 82.0395C137.739 82.0639 137.703 82.0798 137.666 82.0854C137.357 82.1284 137.047 82.0888 136.737 81.9665C136.153 81.7388 135.411 81.7791 134.843 81.9726C134.519 82.0814 134.186 82.1486 133.845 82.1741C133.813 82.1767 133.782 82.1707 133.754 82.1567C133.726 82.1427 133.702 82.1212 133.686 82.0948C133.67 82.0684 133.662 82.038 133.662 82.0071C133.663 81.9763 133.672 81.9461 133.689 81.9202C134.078 81.3256 134.652 81.2732 134.671 80.4085C134.699 79.0689 134.697 77.8797 134.663 76.8411C134.648 76.3916 134.824 75.7749 134.597 75.396C134.363 75.0076 134.09 74.6254 133.777 74.2491C133.752 74.2194 133.737 74.1832 133.732 74.1449C133.728 74.1066 133.735 74.068 133.753 74.0337C133.771 73.9994 133.799 73.971 133.833 73.952C133.867 73.933 133.906 73.9242 133.945 73.9267C134.65 73.971 135.318 74.0254 136.026 73.9488C136.489 73.9005 136.952 73.9744 137.416 74.1705C137.511 74.2095 137.616 74.2138 137.713 74.1826C138.742 73.842 139.404 73.4833 140.546 74.0033C141.307 74.3479 141.692 74.9082 141.671 75.7144C141.633 77.1239 141.636 78.6356 141.68 80.2493C141.695 80.8204 141.931 81.2765 142.389 81.6178C142.459 81.6711 142.507 81.747 142.524 81.8315C142.569 82.0518 142.513 82.1694 142.354 82.1842C142.224 82.1949 142.101 82.1775 141.983 82.1318C141.403 81.9081 140.423 81.6642 139.806 81.894C139.595 81.9719 139.388 82.0438 139.183 82.1096C138.972 82.1755 138.769 82.16 138.572 82.0633L138.453 82.0048C138.278 81.9175 138.279 81.8328 138.455 81.7508C139.015 81.4888 139.38 81.122 139.386 80.4952C139.398 78.9325 139.4 77.3725 139.392 75.8152C139.384 74.5656 138.512 74.7228 137.635 74.9122C137.564 74.9284 137.511 74.9673 137.475 75.0291Z" fill="#142216"/>
<path d="M53.9663 74.235C54.3941 74.2874 54.8109 74.2081 55.2168 73.9972C55.8995 73.6404 56.8835 73.7311 57.5661 73.9831C58.3308 74.2653 58.6075 75.3818 58.6157 76.0691C58.6294 77.3953 58.6383 78.7088 58.6424 80.0094C58.6438 80.4018 58.7292 80.7908 58.8986 81.1764C58.9296 81.2478 58.979 81.3109 59.0421 81.3598C59.2608 81.5291 59.4357 81.7159 59.5669 81.9201C59.583 81.9449 59.5912 81.9737 59.5906 82.003C59.5901 82.0323 59.5808 82.0609 59.5638 82.0852C59.5469 82.1096 59.523 82.1287 59.4952 82.1401C59.4674 82.1516 59.4367 82.155 59.407 82.1499C58.8535 82.0451 58.3055 81.9349 57.7629 81.8194C57.1213 81.6823 56.5534 82.0189 55.963 82.0773C55.225 82.1539 54.3101 82.0841 53.2181 81.8677C52.8327 81.7911 52.4001 81.779 52.0229 81.902C51.6539 82.0209 50.9918 82.2225 50.6453 82.0451C50.6205 82.0325 50.5995 82.0139 50.5842 81.9909C50.5689 81.968 50.5598 81.9415 50.558 81.9142C50.5561 81.8868 50.5615 81.8594 50.5736 81.8347C50.5856 81.81 50.604 81.7887 50.6269 81.773L51.2767 81.3235C51.3456 81.2763 51.4016 81.213 51.4399 81.1392C51.4781 81.0654 51.4974 80.9834 51.4961 80.9003C51.4701 79.433 51.4585 77.9899 51.4612 76.571C51.4633 76.0893 51.7277 75.4363 51.3013 75.0553C51.0622 74.843 50.9071 74.5414 50.836 74.1504C50.8304 74.1207 50.8319 74.0901 50.8404 74.061C50.849 74.032 50.8644 74.0053 50.8853 73.9832C50.9062 73.9611 50.9321 73.9441 50.9609 73.9335C50.9898 73.923 51.0207 73.9193 51.0512 73.9226C51.9013 74.018 52.694 74.022 53.4292 73.9347C53.4921 73.9266 53.5468 73.9441 53.5932 73.9871L53.7654 74.1423C53.8228 74.1947 53.8898 74.2256 53.9663 74.235ZM55.2127 74.747C54.2615 74.8256 53.9253 75.662 53.9192 76.4601C53.9069 77.7353 53.9096 79.0581 53.9274 80.4287C53.952 82.1418 56.1455 82.4139 56.1496 80.5879C56.1537 78.8492 56.1653 77.2106 56.1844 75.6721C56.1926 75.0029 55.8687 74.6946 55.2127 74.747Z" fill="#142216"/>
<path d="M82.3075 74.8619C82.0984 74.7128 81.8982 74.5475 81.7068 74.3661C81.6604 74.3218 81.6262 74.2714 81.6043 74.215C81.5551 74.086 81.6002 74.0201 81.7396 74.0174L84.7552 73.9549C84.8058 73.9549 84.8529 73.9677 84.8966 73.9932C85.2766 74.223 85.7153 74.2203 86.2127 73.9852C86.8455 73.6855 87.643 73.6923 88.6051 74.0053C89.2502 74.2149 89.5686 74.6557 89.5604 75.3275C89.5467 76.5408 89.5392 77.7582 89.5378 78.9796C89.5378 79.6501 89.5474 80.0404 89.5665 80.1506C89.7059 80.985 90.0995 81.3901 90.6838 81.9222C90.6958 81.9332 90.7044 81.9474 90.7083 81.963C90.7122 81.9787 90.7114 81.9951 90.706 82.0103C90.7005 82.0256 90.6907 82.0389 90.6776 82.0486C90.6646 82.0584 90.6489 82.0642 90.6325 82.0653C89.6813 82.1198 88.9392 81.628 87.9655 81.8718C86.8817 82.1433 85.8786 82.1856 84.9561 81.9988C84.1853 81.8416 83.6605 81.7046 82.8097 81.9363C82.4448 82.0371 82.0027 82.0707 81.4834 82.0371C81.3905 82.0304 81.3727 81.9908 81.4301 81.9182C81.9569 81.235 82.656 81.4325 82.6416 80.2635C82.6266 78.9883 82.6198 77.7669 82.6211 76.5993C82.6211 76.0128 82.904 75.2892 82.3075 74.8619ZM87.3589 75.8249C87.3608 75.6851 87.3348 75.5464 87.2822 75.4165C87.2297 75.2867 87.1516 75.1683 87.0525 75.0681C86.9534 74.9679 86.8352 74.8879 86.7047 74.8326C86.5741 74.7773 86.4338 74.7479 86.2917 74.7459L86.2097 74.7448C86.0676 74.7429 85.9264 74.7684 85.7944 74.8201C85.6623 74.8718 85.5419 74.9485 85.44 75.046C85.3381 75.1434 85.2567 75.2596 85.2004 75.388C85.1442 75.5163 85.1143 75.6543 85.1123 75.794L85.042 80.7396C85.04 80.8793 85.0661 81.0181 85.1186 81.1479C85.1712 81.2778 85.2492 81.3962 85.3483 81.4964C85.4474 81.5966 85.5656 81.6766 85.6962 81.7319C85.8267 81.7871 85.9671 81.8166 86.1092 81.8185L86.1912 81.8197C86.3333 81.8216 86.4745 81.796 86.6065 81.7444C86.7386 81.6927 86.859 81.6159 86.9609 81.5185C87.0628 81.4211 87.1442 81.3049 87.2004 81.1765C87.2567 81.0482 87.2866 80.9102 87.2886 80.7704L87.3589 75.8249Z" fill="#142216"/>
<path d="M47.3961 74.6925C47.2539 74.9773 47.12 75.2588 46.9943 75.537C46.8446 75.8675 46.7565 76.2625 46.7524 76.6253C46.7387 77.664 46.7291 78.7416 46.7237 79.8582C46.7175 80.9042 47.1788 81.2449 48.0213 81.7084C48.1307 81.7689 48.212 81.8529 48.2653 81.9604C48.2763 81.9825 48.2809 82.0071 48.2785 82.0316C48.2761 82.0561 48.2668 82.0795 48.2518 82.0991C48.2367 82.1187 48.2163 82.1339 48.193 82.1428C48.1697 82.1518 48.1443 82.1542 48.1197 82.1498C47.107 81.9725 45.8709 81.6056 44.8602 81.9221C44.4379 82.0537 44.0245 82.1337 43.62 82.1619C43.592 82.1637 43.5642 82.1576 43.5396 82.1444C43.5151 82.1312 43.4948 82.1114 43.4813 82.0873C43.4678 82.0632 43.4615 82.0358 43.4632 82.0084C43.4648 81.9809 43.4744 81.9545 43.4908 81.9321C43.6562 81.7118 43.8421 81.5049 44.0484 81.3114C44.4338 80.9506 44.4953 80.3903 44.4912 79.8965C44.4817 78.5555 44.481 77.2495 44.4892 75.9783C44.4912 75.3939 44.0464 74.8698 43.7061 74.4063C43.4259 74.026 43.5223 73.8688 43.9951 73.9346C44.77 74.0408 45.4752 74.0199 46.1107 73.8721C46.1949 73.8514 46.2845 73.8637 46.3608 73.9064C46.6929 74.0851 47.0284 74.3055 47.3674 74.5675C47.4125 74.6011 47.422 74.6427 47.3961 74.6925Z" fill="#142216"/>
<path d="M103.974 79.2072C104.06 79.1064 104.136 79.054 104.173 78.919C104.268 78.5602 104.411 78.2236 104.599 77.9092C104.921 77.367 104.997 76.8047 105.085 76.2061C105.146 75.7748 105.315 75.281 104.872 74.9625C104.596 74.761 104.422 74.4795 104.351 74.118C104.32 73.9635 104.384 73.8903 104.544 73.8984L106.989 74.0233C107.003 74.024 107.016 74.028 107.027 74.035C107.038 74.042 107.048 74.0517 107.054 74.0632C107.06 74.0748 107.064 74.0877 107.063 74.1008C107.063 74.114 107.06 74.1268 107.053 74.1382C106.817 74.5292 106.545 74.89 106.239 75.2205C106.046 75.4261 105.891 75.7184 105.839 75.9925C105.722 76.6334 105.54 77.2125 105.294 77.7298C105.075 78.1921 104.904 78.6449 104.78 79.0883C104.561 79.8649 104.19 80.7934 103.666 81.8737C103.486 82.2446 102.996 82.2869 102.736 81.9785C102.421 81.6103 102.159 81.1569 101.948 80.618C101.276 78.8941 100.616 77.2831 99.9682 75.7849C99.729 75.2326 99.4031 74.6898 98.9903 74.1563C98.9329 74.0811 98.9514 74.0354 99.0457 74.0193C99.7529 73.8984 100.448 74.1825 101.155 74.1664C101.713 74.1543 102.276 74.0536 102.844 73.8641C102.886 73.8503 102.931 73.8491 102.973 73.8606C103.015 73.872 103.053 73.8956 103.081 73.9284C103.11 73.9611 103.127 74.0015 103.132 74.0442C103.137 74.087 103.129 74.1303 103.109 74.1684L102.561 75.1943C102.517 75.2789 102.493 75.3728 102.493 75.4679C102.493 75.563 102.517 75.6566 102.561 75.7405C103.073 76.7053 103.459 77.746 103.72 78.8625C103.74 78.9472 103.779 79.0251 103.837 79.0963C103.857 79.1205 103.868 79.1467 103.869 79.1749C103.873 79.2744 103.908 79.2851 103.974 79.2072Z" fill="#142216"/>
<path d="M59.1097 87.8659L59.0256 87.4225C59.017 87.3775 59.0188 87.3311 59.0308 87.2869C59.0428 87.2426 59.0648 87.2016 59.0951 87.1668C59.1254 87.132 59.1632 87.1043 59.2058 87.0857C59.2485 87.0672 59.2948 87.0583 59.3413 87.0597L59.7206 87.0718C59.7638 87.0734 59.8062 87.0839 59.845 87.1025C59.8839 87.121 59.9184 87.1474 59.9464 87.1798C59.9743 87.2122 59.9951 87.25 60.0074 87.2907C60.0197 87.3315 60.0233 87.3743 60.0178 87.4165L59.9461 87.9788C59.9397 88.0296 59.9204 88.078 59.89 88.1196C59.8597 88.1612 59.8192 88.1946 59.7723 88.2169C59.7254 88.2391 59.6736 88.2495 59.6216 88.247C59.5696 88.2444 59.519 88.2292 59.4746 88.2025L59.2552 88.0695C59.2178 88.0474 59.1856 88.0179 59.1605 87.9829C59.1354 87.9478 59.1181 87.908 59.1097 87.8659Z" fill="#142216"/>
<path d="M79.6014 87.8075L79.5728 87.3742C79.57 87.3357 79.5752 87.297 79.5881 87.2606C79.6009 87.2242 79.6212 87.1907 79.6477 87.1622C79.6742 87.1338 79.7063 87.1109 79.742 87.095C79.7778 87.0791 79.8164 87.0705 79.8557 87.0698L80.2062 87.0638C80.2491 87.063 80.2916 87.0717 80.3307 87.0891C80.3697 87.1066 80.4043 87.1323 80.432 87.1646C80.4597 87.1968 80.4797 87.2347 80.4907 87.2755C80.5016 87.3162 80.5032 87.3589 80.4953 87.4004L80.3682 88.0675C80.3583 88.1206 80.3332 88.1699 80.2959 88.2096C80.2586 88.2492 80.2105 88.2776 80.1574 88.2913C80.1042 88.3051 80.0482 88.3036 79.9958 88.2872C79.9435 88.2708 79.897 88.24 79.8618 88.1985L79.6691 87.9707C79.6295 87.9247 79.6058 87.8676 79.6014 87.8075Z" fill="#142216"/>
<path d="M42.6113 89.3593L42.3305 89.3533C42.0052 89.3479 41.8419 89.5051 41.8405 89.8249L41.8241 93.09C41.8227 93.309 41.7107 93.4212 41.4879 93.4266L41.3034 93.4306C41.2605 93.4317 41.2179 93.4244 41.1779 93.4091C41.1379 93.3938 41.1014 93.3709 41.0705 93.3417C41.0396 93.3124 41.0149 93.2774 40.9979 93.2387C40.9809 93.2 40.9718 93.1584 40.9713 93.1162C40.9522 91.9674 40.9289 90.9253 40.9016 89.9902C40.8961 89.8088 40.7977 89.5373 40.6064 89.1759C40.575 89.1154 40.5777 89.057 40.6146 89.0005C40.9549 88.4886 40.9713 88.0311 41.0779 87.4929C41.1271 87.2491 41.2891 87.0616 41.5494 87.1402C41.6003 87.1553 41.6455 87.1848 41.6791 87.225C41.7127 87.2652 41.7332 87.3143 41.738 87.366C41.777 87.8074 41.7319 88.7365 42.312 88.8595C42.6058 88.9199 42.8908 89.0039 43.1669 89.1114C43.2561 89.1459 43.3522 89.1596 43.4479 89.1516C43.5435 89.1436 43.6361 89.1139 43.7183 89.065C44.0436 88.8742 44.4016 88.7647 44.7925 88.7365C45.003 88.7217 45.2005 88.7688 45.385 88.8776C45.4642 88.9246 45.5203 88.9911 45.5531 89.0771C45.5572 89.0883 45.5588 89.1003 45.5577 89.1121C45.5566 89.1239 45.5529 89.1353 45.5468 89.1454C45.5407 89.1555 45.5323 89.164 45.5224 89.1703C45.5125 89.1767 45.5012 89.1806 45.4895 89.1819C44.7966 89.2666 44.3675 89.6092 44.2021 90.2098C43.9588 91.0953 43.8727 92.0137 43.9438 92.965C43.9469 93.0095 43.9407 93.0541 43.9255 93.096C43.9103 93.138 43.8864 93.1764 43.8555 93.209C43.8245 93.2415 43.7871 93.2674 43.7455 93.2851C43.7039 93.3027 43.6591 93.3118 43.6138 93.3117L43.4949 93.3097C43.3172 93.3097 43.2249 93.223 43.2181 93.0497L43.0767 89.8047C43.0644 89.5132 42.9092 89.3647 42.6113 89.3593Z" fill="#142216"/>
<path d="M103.187 88.3234L103.341 87.4123C103.352 87.3474 103.382 87.287 103.429 87.2389C103.475 87.1909 103.535 87.1572 103.601 87.1423C104.008 87.0522 104.38 87.0771 104.716 87.2168C104.754 87.2332 104.787 87.26 104.811 87.2941C104.834 87.3281 104.847 87.368 104.848 87.4091C104.849 87.4502 104.838 87.4907 104.817 87.526C104.795 87.5612 104.764 87.5896 104.726 87.6079C104.316 87.8054 103.726 88.2125 104.005 88.7184C104.042 88.7856 104.098 88.8252 104.175 88.8373L104.763 88.93C104.86 88.9448 104.879 88.9912 104.821 89.0691C104.648 89.3029 104.431 89.4776 104.169 89.5931C104.105 89.6213 104.063 89.669 104.044 89.7362C103.977 89.9727 103.942 90.2125 103.939 90.4558C103.932 91.2405 103.951 92.0574 103.995 92.9066C104.007 93.1444 103.895 93.2909 103.66 93.346C103.603 93.3581 103.545 93.3614 103.486 93.3561C103.319 93.3413 103.233 93.2513 103.228 93.086C103.19 92.0554 103.197 91.0288 103.25 90.0063C103.254 89.9257 103.237 89.8455 103.2 89.7735C103.163 89.7015 103.107 89.6401 103.039 89.5951L102.728 89.3916C102.679 89.36 102.64 89.3175 102.611 89.2678C102.583 89.2181 102.567 89.1624 102.565 89.1055C102.563 89.0486 102.575 88.992 102.6 88.9405C102.624 88.8889 102.661 88.8439 102.707 88.8091L103.045 88.5531C103.123 88.4953 103.17 88.4188 103.187 88.3234Z" fill="#142216"/>
<path d="M71.91 89.4359L71.7111 89.2243C71.636 89.1436 71.6367 89.0637 71.7132 88.9844C72.1109 88.5692 72.1724 87.8719 72.2933 87.3357C72.3046 87.2849 72.3326 87.2392 72.373 87.2057C72.4134 87.1721 72.464 87.1527 72.5168 87.1503C72.7013 87.1436 72.8099 87.2195 72.8427 87.3781C72.9493 87.9021 72.9739 88.6962 73.5828 88.8877C73.6152 88.898 73.644 88.917 73.666 88.9426C73.688 88.9682 73.7022 88.9993 73.7071 89.0325C73.712 89.0656 73.7074 89.0995 73.6937 89.1301C73.6801 89.1608 73.658 89.1872 73.6299 89.2061C73.2022 89.4883 72.9944 89.8867 73.0067 90.4013C73.0272 91.3379 73.0341 92.2529 73.0272 93.1464C73.0268 93.2081 73.0063 93.268 72.9686 93.3174C72.931 93.3667 72.8782 93.4029 72.8181 93.4205C72.7539 93.438 72.689 93.4447 72.6234 93.4407C72.3446 93.4246 72.2011 93.2795 72.1929 93.0054L72.0883 89.8652C72.0831 89.7054 72.0198 89.553 71.91 89.4359Z" fill="#142216"/>
<path d="M99.5567 87.2059L99.5413 87.2004C99.3273 87.1242 99.091 87.233 99.0136 87.4434L96.6969 93.7353C96.6195 93.9457 96.7301 94.178 96.9441 94.2542L96.9595 94.2596C97.1735 94.3358 97.4098 94.227 97.4872 94.0166L99.8039 87.7247C99.8813 87.5143 99.7707 87.282 99.5567 87.2059Z" fill="#142216"/>
<path d="M32.0292 90.5426C31.8795 91.0122 31.5843 92.673 32.472 92.6871C32.8902 92.6951 33.2783 92.6602 33.6364 92.5823C33.7034 92.5675 33.771 92.5688 33.8393 92.5863L35.219 92.9572C35.2942 92.976 35.2969 93.0022 35.2272 93.0358C34.2493 93.5034 32.7938 93.4268 31.7155 93.3179C31.6245 93.3087 31.5393 93.2697 31.4738 93.2071C31.4083 93.1445 31.3663 93.0621 31.3547 92.9733C31.2912 92.4734 31.203 91.9756 31.2358 91.4677C31.285 90.722 31.3855 90.0145 31.2871 89.2728C31.2133 88.7206 31.2365 88.1589 31.3568 87.5879C31.3713 87.5205 31.4064 87.4592 31.4574 87.4123C31.5084 87.3654 31.5728 87.3352 31.6417 87.3258C32.554 87.1968 34.0771 87.084 34.9033 87.5254C34.938 87.5438 34.9647 87.574 34.9787 87.6102C34.9926 87.6465 34.9928 87.6865 34.9791 87.7229C34.9122 87.9056 34.7782 87.991 34.5773 87.9789C33.8653 87.9372 33.1683 87.9184 32.4863 87.9224C32.157 87.9251 31.9643 88.0857 31.9082 88.4041C31.8577 88.6917 31.859 88.9826 31.9123 89.2769C31.9684 89.5872 32.1563 89.731 32.4761 89.7082C33.1731 89.6578 34.1694 89.4844 34.8008 89.8009C34.8238 89.8121 34.8438 89.8285 34.8592 89.8488C34.8746 89.869 34.885 89.8925 34.8895 89.9175C34.8941 89.9426 34.8927 89.9683 34.8855 89.9928C34.8783 90.0174 34.8654 90.04 34.8479 90.0589C34.4297 90.5103 32.9332 90.3894 32.3059 90.3551C32.1652 90.3471 32.0729 90.4096 32.0292 90.5426Z" fill="#142216"/>
<path d="M82.9019 88.6801C83.2477 88.797 83.6174 88.9313 84.011 89.0832C84.2898 89.192 84.5091 89.1194 84.7572 88.9864C84.7889 88.9698 84.8246 88.9622 84.8605 88.9646C84.8963 88.9669 84.9307 88.979 84.9599 88.9995C84.9891 89.0201 85.0119 89.0482 85.0257 89.0808C85.0395 89.1134 85.0438 89.1491 85.038 89.1839C84.8679 90.1977 84.7018 91.7638 85.5157 92.5216C85.9913 92.965 86.6514 92.8038 86.9814 92.2636C87.2343 91.8538 87.3457 91.4534 87.3156 91.0624C87.2705 90.49 87.2356 89.888 87.211 89.2565C87.2094 89.2215 87.2157 89.1866 87.2296 89.1543C87.2434 89.1219 87.2644 89.093 87.291 89.0695C87.3176 89.046 87.3493 89.0285 87.3836 89.0184C87.418 89.0082 87.4543 89.0055 87.4898 89.0106L88.4062 89.1477C88.5319 89.1665 88.5435 89.2135 88.441 89.2887C88.1007 89.5367 88.1745 89.8611 88.1274 90.2401C88.0618 90.758 88.1684 91.274 88.0208 91.796C87.9101 92.1911 87.7495 92.5767 87.539 92.9529C87.0204 93.8841 85.4542 93.4729 84.79 93.0174C84.5235 92.8347 84.3547 92.4994 84.2836 92.0117C84.1511 91.1074 84.1087 90.365 84.1565 89.7846C84.1729 89.5723 84.0725 89.4614 83.8552 89.452L83.0372 89.4218C82.7871 89.4124 82.6655 89.5313 82.6723 89.7785L82.7707 93.0577C82.7727 93.1255 82.7524 93.1921 82.713 93.2479C82.6735 93.3037 82.6169 93.3459 82.5514 93.3681C82.4831 93.3923 82.4134 93.4004 82.3423 93.3923C82.2111 93.3802 82.1434 93.309 82.1393 93.1787C82.1024 92.0164 82.0881 90.9717 82.0963 90.0446C82.099 89.581 81.7881 89.3116 81.1635 89.2363C80.8178 89.1933 80.8068 89.1107 81.1307 88.9884L81.8749 88.7042C81.9578 88.6728 82.0282 88.6159 82.0754 88.5422C82.1227 88.4685 82.1444 88.3818 82.1373 88.2951L82.0676 87.4103C82.0539 87.2356 82.1339 87.1691 82.3074 87.2108C82.3512 87.2202 82.3929 87.2329 82.4325 87.2491C82.4885 87.2697 82.5374 87.3054 82.5736 87.3521C82.6099 87.3988 82.632 87.4546 82.6375 87.5131L82.7277 88.4604C82.7386 88.5706 82.7967 88.6438 82.9019 88.6801Z" fill="#142216"/>
<path d="M125.458 88.9743C125.48 88.9759 125.502 88.9732 125.522 88.9664C125.543 88.9595 125.562 88.9485 125.578 88.9342C125.595 88.9199 125.608 88.9025 125.617 88.8831C125.626 88.8637 125.631 88.8426 125.632 88.8211L125.679 87.5252C125.686 87.3357 125.786 87.241 125.979 87.241H126.044C126.283 87.241 126.404 87.3585 126.407 87.5937C126.426 89.1093 126.442 90.7083 126.454 92.3906C126.456 92.6056 126.488 92.8145 126.553 93.0174C126.559 93.0373 126.561 93.0585 126.558 93.0793C126.555 93.1 126.547 93.1198 126.534 93.1372C126.522 93.1545 126.506 93.1689 126.487 93.1792C126.468 93.1895 126.447 93.1956 126.426 93.1968C125.724 93.2331 125.043 93.3211 124.382 93.4608C123.525 93.6422 122.623 92.9348 122.166 92.2737C121.898 91.8867 121.782 91.4493 121.819 90.9616C121.899 89.9176 122.621 89.1597 123.603 88.8272C124.158 88.6377 124.866 88.934 125.458 88.9743ZM124.415 92.7506C124.804 92.6833 125.146 92.4486 125.366 92.0983C125.587 91.748 125.668 91.3108 125.591 90.8828C125.553 90.6709 125.478 90.4677 125.369 90.2846C125.26 90.1016 125.12 89.9424 124.957 89.8162C124.794 89.6899 124.611 89.5991 124.419 89.5488C124.227 89.4986 124.029 89.4899 123.836 89.5232C123.447 89.5906 123.105 89.8253 122.884 90.1755C122.664 90.5258 122.583 90.963 122.66 91.391C122.698 91.6029 122.773 91.8062 122.882 91.9892C122.991 92.1722 123.131 92.3314 123.294 92.4577C123.457 92.5839 123.64 92.6748 123.832 92.7251C124.024 92.7753 124.222 92.784 124.415 92.7506Z" fill="#142216"/>
<path d="M58.9847 89.9903C59.0113 89.2668 58.1647 89.039 57.8551 89.692C57.6324 90.161 57.5162 90.56 57.5066 90.8892C57.4861 91.6 57.4711 92.3444 57.4615 93.1224C57.4588 93.3401 57.3474 93.4375 57.1274 93.4147L56.8404 93.3844C56.7618 93.376 56.6891 93.3393 56.6365 93.2817C56.5839 93.224 56.555 93.1493 56.5554 93.072L56.5841 89.1095C56.5845 89.0495 56.6082 88.9918 56.6504 88.9481C56.6926 88.9044 56.7502 88.8778 56.8117 88.8737L59.4295 88.7085C59.5141 88.7029 59.5976 88.7304 59.662 88.7851C59.7264 88.8397 59.7666 88.9171 59.7739 89.0007C59.8792 90.3094 59.9243 91.684 59.9092 93.1244C59.9065 93.3246 59.8033 93.4221 59.5997 93.4167L59.2983 93.4086C59.107 93.4032 59.0065 93.3072 58.997 93.1204C58.9478 92.1341 58.9437 91.0908 58.9847 89.9903Z" fill="#142216"/>
<path d="M37.8225 89.3998C37.4904 89.4253 37.2068 89.5865 36.9717 89.8835C36.1763 90.8872 36.2091 91.8567 36.4551 93.0357C36.4603 93.0612 36.4586 93.0875 36.4503 93.1121C36.4419 93.1367 36.4272 93.1588 36.4075 93.1761C36.3878 93.1934 36.3639 93.2053 36.3381 93.2108C36.3123 93.2162 36.2855 93.2149 36.2604 93.2071L35.6249 92.9974C35.5497 92.9733 35.5415 92.935 35.6003 92.8826C35.7069 92.7919 35.7397 92.6367 35.7212 92.5057C35.6228 91.8325 35.5996 91.1553 35.6515 90.474C35.6823 90.0649 35.5203 89.7263 35.5019 89.3192C35.495 89.1525 35.5743 89.0887 35.7397 89.1277L36.1517 89.2244C36.2501 89.2486 36.3451 89.2406 36.4367 89.2002C36.7168 89.0793 37.0052 88.9624 37.3018 88.8495C38.5236 88.3819 39.4932 89.3111 39.4789 90.4841C39.4679 91.3481 39.4666 92.2524 39.4748 93.197C39.4761 93.4106 39.373 93.4859 39.1652 93.4227L39.0135 93.3784C38.8003 93.3139 38.6944 93.1721 38.6958 92.9531C38.6985 92.2557 38.693 91.5214 38.6794 90.7502C38.6691 90.2826 38.4928 89.3494 37.8225 89.3998Z" fill="#142216"/>
<path d="M46.7605 91.4112L46.8671 91.9494C46.93 92.2611 47.1152 92.4667 47.4227 92.5661C48.311 92.855 48.9301 92.642 49.28 91.9272C49.4112 91.6571 49.7453 91.6833 49.979 91.778C50.0979 91.8278 50.156 91.9379 50.1533 92.1086C50.1478 92.329 50.0631 92.509 49.8991 92.6487C49.2205 93.2252 48.3103 93.7673 47.4145 93.3421C46.7113 93.0075 46.0205 92.7273 45.8155 91.9111C45.646 91.2365 45.713 90.5049 46.0164 89.7162C46.0382 89.6584 46.0785 89.6174 46.1373 89.5932C46.5049 89.4401 46.8534 89.2446 47.1828 89.0067C48.0008 88.4142 48.87 88.9664 49.5547 89.4905C50.0644 89.8815 50.2742 90.3874 50.184 91.0081C50.1731 91.0847 50.1293 91.127 50.0528 91.1351C49.2185 91.2318 48.0069 91.3266 47.1459 91.0666C46.822 90.9698 46.6935 91.0847 46.7605 91.4112ZM48.9294 89.972C48.9281 89.8315 48.8265 89.6975 48.6469 89.5996C48.4672 89.5018 48.2243 89.448 47.9715 89.4502C47.7186 89.4523 47.4767 89.5103 47.2988 89.6112C47.1209 89.7121 47.0217 89.8478 47.023 89.9884C47.0242 90.129 47.1258 90.2629 47.3055 90.3608C47.4851 90.4587 47.7281 90.5124 47.9809 90.5103C48.2337 90.5081 48.4756 90.4502 48.6535 90.3492C48.8314 90.2483 48.9306 90.1126 48.9294 89.972Z" fill="#142216"/>
<path d="M52.0311 92.961C51.9908 92.9329 51.9429 92.9175 51.8936 92.9168C51.8443 92.9161 51.7959 92.93 51.7548 92.9569C51.7138 92.9837 51.6819 93.0222 51.6635 93.0672C51.6451 93.1122 51.6411 93.1616 51.6518 93.2089C51.7639 93.6926 51.8021 94.1528 51.7666 94.5895C51.7616 94.6533 51.7327 94.7129 51.6854 94.7572C51.6382 94.8014 51.5758 94.8271 51.5104 94.8294C51.4735 94.8307 51.4372 94.826 51.4017 94.8153C51.2951 94.7844 51.2384 94.7145 51.2316 94.6057C51.2049 94.1461 51.1496 93.6805 51.1598 93.217C51.1844 92.2092 51.222 91.2001 51.2726 90.1897C51.291 89.8168 51.2152 89.5508 51.0758 89.2222C51.067 89.2018 51.0645 89.1793 51.0685 89.1575C51.0724 89.1357 51.0827 89.1155 51.0981 89.0993C51.1135 89.0831 51.1333 89.0717 51.1552 89.0663C51.177 89.0609 51.2 89.0619 51.2213 89.0691L51.74 89.2384C51.8247 89.2666 51.9094 89.2639 51.9942 89.2303C52.5149 89.0247 53.2098 88.668 53.7674 88.7869C54.8853 89.0247 55.5249 89.6435 55.6862 90.6432C56.0306 92.7998 53.8986 94.2791 52.0311 92.961ZM53.2372 92.691C53.4283 92.7241 53.6248 92.7165 53.8155 92.6687C54.0062 92.6208 54.1873 92.5335 54.3485 92.4119C54.5097 92.2903 54.6478 92.1367 54.7549 91.9598C54.862 91.783 54.9361 91.5864 54.9729 91.3812C55.0472 90.9669 54.9651 90.543 54.7447 90.2028C54.5242 89.8625 54.1835 89.6337 53.7975 89.5668C53.6063 89.5337 53.4098 89.5413 53.2191 89.5891C53.0284 89.637 52.8473 89.7243 52.6861 89.8459C52.525 89.9675 52.3869 90.1211 52.2797 90.298C52.1726 90.4748 52.0985 90.6714 52.0617 90.8766C51.9874 91.2909 52.0695 91.7148 52.29 92.055C52.5104 92.3953 52.8511 92.6241 53.2372 92.691Z" fill="#142216"/>
<path d="M62.404 92.4271C62.4962 91.9555 61.7234 91.3246 61.3585 91.121C60.7558 90.7845 60.5364 90.1476 60.8193 89.5006C61.2683 88.4767 62.1887 88.5956 62.9923 89.1237C63.0497 89.1613 63.0777 89.2144 63.0764 89.2829C63.0764 89.4589 63.0361 89.6302 62.9554 89.7969C62.8775 89.9608 62.7819 89.9715 62.6684 89.8291C62.4935 89.6087 62.2776 89.4791 62.0206 89.4401C61.6667 89.3864 61.5136 89.5342 61.5614 89.8835C61.6127 90.2423 61.914 90.5365 62.2072 90.73C62.939 91.2077 63.7057 91.9917 63.0026 92.8645C62.5543 93.4207 61.9708 93.6256 61.2519 93.4792C60.7927 93.3865 60.766 92.6992 60.8132 92.3505C60.8168 92.3247 60.8271 92.3003 60.8433 92.2796C60.8595 92.259 60.8809 92.2429 60.9053 92.2329C60.9298 92.2229 60.9565 92.2194 60.9828 92.2227C61.009 92.226 61.034 92.236 61.0551 92.2517C61.3147 92.4425 61.6079 92.5917 61.9345 92.6992C61.9835 92.7153 62.0355 92.7209 62.0869 92.7156C62.1382 92.7103 62.1879 92.6942 62.2324 92.6684C62.2769 92.6426 62.3152 92.6077 62.3448 92.5661C62.3745 92.5244 62.3946 92.477 62.404 92.4271Z" fill="#142216"/>
<path d="M65.2515 90.9355C65.2164 90.9429 65.184 90.9589 65.1574 90.9818C65.1308 91.0048 65.111 91.034 65.0998 91.0665C64.6283 92.4028 66.0612 93.0659 67.0965 92.4673C67.1607 92.4297 67.2099 92.3786 67.2441 92.3141C67.4306 91.9594 67.4901 91.4737 68.0764 91.7055C68.1447 91.7337 68.1898 91.782 68.2117 91.8506C68.3415 92.2523 68.2274 92.5842 67.8693 92.8462C67.2523 93.2977 66.4159 93.6807 65.6676 93.3501C65.0711 93.0841 64.4622 92.7414 64.1732 92.1408C63.7816 91.3286 63.6914 90.1092 64.5381 89.5851C65.2658 89.1337 65.8603 88.4041 66.8156 88.8918C67.6889 89.3372 68.3244 89.8653 68.5253 90.8186C68.5327 90.8537 68.5325 90.89 68.5248 90.925C68.5172 90.9601 68.5021 90.9931 68.4807 91.0221C68.4593 91.0512 68.432 91.0755 68.4005 91.0935C68.369 91.1116 68.334 91.123 68.2978 91.127C67.5161 91.2184 66.7193 91.2446 65.9075 91.2056C65.7613 91.1989 65.6348 91.1371 65.5282 91.0202C65.4565 90.9416 65.3581 90.9113 65.2515 90.9355ZM66.1514 89.4179C66.0842 89.4123 66.0167 89.4256 65.9567 89.4562L65.477 89.702C65.41 89.7367 65.3559 89.7913 65.3224 89.858C65.2889 89.9247 65.2777 90.0002 65.2904 90.0735C65.3032 90.1469 65.3392 90.2144 65.3933 90.2664C65.4474 90.3184 65.5169 90.3523 65.5918 90.3631L66.6619 90.5103C66.7089 90.5168 66.7568 90.5141 66.8027 90.5022C66.8487 90.4904 66.8918 90.4698 66.9295 90.4415C66.9673 90.4132 66.9989 90.3778 67.0227 90.3373C67.0464 90.2969 67.0618 90.2522 67.0678 90.2059L67.1129 89.8673C67.1192 89.82 67.1156 89.772 67.1024 89.7261C67.0893 89.6802 67.0668 89.6373 67.0363 89.6002C67.0058 89.5631 66.968 89.5325 66.9252 89.5101C66.8823 89.4878 66.8353 89.4742 66.7869 89.4703L66.1514 89.4179Z" fill="#142216"/>
<path d="M88.9475 89.3938C88.9202 89.3696 88.8997 89.3414 88.886 89.3091C88.856 89.2392 88.8771 89.1922 88.9496 89.168C89.6855 88.908 90.7884 88.4545 91.4526 88.9846C91.5415 89.0558 91.5305 89.1042 91.4198 89.1297C90.3415 89.3877 89.6896 90.4176 89.7962 91.5C89.8413 91.9662 89.8728 92.4466 89.8905 92.9411C89.8987 93.1668 89.7873 93.275 89.5564 93.2655C89.5523 93.2655 89.4751 93.2629 89.3247 93.2575C89.0869 93.2481 88.9735 93.1258 88.9844 92.8907C89.0131 92.3156 88.994 91.7553 88.927 91.2097C88.8594 90.6434 89.0398 90.0831 89.007 89.5167C89.0057 89.4931 88.9998 89.4701 88.9896 89.449C88.9794 89.4279 88.9651 89.4091 88.9475 89.3938Z" fill="#142216"/>
<path d="M113.283 89.5427C112.541 89.45 111.744 90.4598 111.664 91.1088C111.571 91.8626 113.039 93.346 113.785 92.6526C114.195 92.2677 114.659 91.9795 115.222 91.9008C115.252 91.897 115.282 91.9039 115.307 91.9203C115.331 91.9366 115.349 91.9613 115.356 91.9895C115.412 92.218 115.344 92.4161 115.153 92.5841C114.452 93.1988 113.806 93.6523 113.595 94.6278C113.58 94.695 113.545 94.7514 113.492 94.7971C113.243 95.0094 112.935 95.0806 112.566 95.0108C112.532 95.0046 112.5 94.9885 112.476 94.9646C112.451 94.9408 112.435 94.9102 112.428 94.8767C112.421 94.8432 112.424 94.8084 112.438 94.7767C112.451 94.7449 112.473 94.7177 112.502 94.6984C112.894 94.4384 113.492 93.6322 112.684 93.3802C111.94 93.1484 111.5 92.7836 111.165 92.0681C110.042 89.6536 113.207 87.7046 115.054 89.3915C115.277 89.5944 115.371 89.8524 115.335 90.1655C115.332 90.1941 115.322 90.2217 115.307 90.246C115.291 90.2703 115.27 90.2908 115.245 90.3058C115.22 90.3208 115.192 90.3299 115.163 90.3325C115.134 90.3351 115.104 90.3311 115.077 90.3207C114.482 90.0929 113.908 89.6213 113.283 89.5427Z" fill="#142216"/>
<path d="M80.1062 88.8472L80.0078 88.8479C79.8312 88.8491 79.689 88.9909 79.6902 89.1645L79.7178 93.0543C79.7191 93.228 79.8633 93.3678 80.0399 93.3666L80.1383 93.3659C80.3149 93.3647 80.4571 93.2229 80.4558 93.0493L80.4282 89.1594C80.427 88.9858 80.2828 88.846 80.1062 88.8472Z" fill="#142216"/>
<path d="M92.6089 91.5421C92.6717 91.6899 92.7264 91.839 92.7729 91.9895C92.9341 92.5122 93.2922 92.7641 93.8471 92.7453C94.3541 92.7279 94.6964 92.5686 94.8741 92.2677C95.0654 91.9438 95.3381 91.6905 95.6921 91.5078C95.7049 91.5012 95.7191 91.4975 95.7336 91.4969C95.7481 91.4962 95.7626 91.4986 95.776 91.504C95.7894 91.5094 95.8015 91.5175 95.8115 91.5279C95.8214 91.5383 95.8289 91.5507 95.8335 91.5642C96.1021 92.3664 95.5404 93.0295 94.8106 93.3036C94.007 93.6059 93.2047 93.481 92.4039 92.9287C91.8934 92.578 91.6659 91.9432 91.508 91.3768C91.342 90.7742 91.7356 90.2703 91.8606 89.7059C91.8797 89.6226 91.9289 89.5642 92.0082 89.5306C92.4442 89.3425 92.8631 89.1443 93.2649 88.936C93.9824 88.5611 94.7224 89.1033 95.3108 89.4419C96.0775 89.8813 96.2524 90.49 95.8356 91.268C95.7987 91.3378 95.7413 91.3634 95.6634 91.3445C95.3846 91.278 95.1447 91.1873 94.8495 91.1974C94.188 91.2203 93.5703 91.1786 92.9963 91.0725C92.5713 90.9932 92.4421 91.1497 92.6089 91.5421ZM94.8331 89.9669C94.8328 89.9028 94.8068 89.8395 94.7566 89.7806C94.7064 89.7217 94.633 89.6683 94.5407 89.6235C94.4483 89.5787 94.3387 89.5433 94.2182 89.5194C94.0977 89.4955 93.9686 89.4836 93.8383 89.4842C93.5752 89.4856 93.3231 89.5383 93.1375 89.6307C92.9519 89.7231 92.848 89.8477 92.8487 89.9771C92.8491 90.0411 92.8751 90.1044 92.9252 90.1634C92.9754 90.2223 93.0488 90.2757 93.1412 90.3205C93.2335 90.3653 93.3431 90.4007 93.4636 90.4246C93.5841 90.4485 93.7132 90.4604 93.8435 90.4597C94.1067 90.4584 94.3587 90.4057 94.5443 90.3133C94.7299 90.2208 94.8338 90.0962 94.8331 89.9669Z" fill="#142216"/>
<path d="M109.899 92.5359C109.9 92.6444 109.88 92.7522 109.839 92.8531C109.799 92.9539 109.738 93.0459 109.661 93.1238C109.584 93.2017 109.492 93.2639 109.391 93.3068C109.29 93.3498 109.181 93.3728 109.07 93.3744L107.721 93.3925C107.082 93.4014 106.466 93.1695 106.007 92.7477C105.549 92.3258 105.287 91.7487 105.278 91.1432C105.273 90.8432 105.331 90.5453 105.448 90.2665C105.566 89.9876 105.74 89.7333 105.96 89.5181C106.181 89.3028 106.445 89.1309 106.736 89.012C107.026 88.8931 107.339 88.8297 107.656 88.8254L109.005 88.8072C109.115 88.8056 109.225 88.8254 109.327 88.8655C109.43 88.9055 109.523 88.9651 109.603 89.0407C109.682 89.1163 109.745 89.2065 109.789 89.3062C109.833 89.4058 109.856 89.513 109.858 89.6215L109.899 92.5359ZM108.318 89.7545C107.496 89.1317 106.86 89.6396 106.373 90.343C106.139 90.6756 105.782 91.0082 106.081 91.4475C106.44 91.9716 106.871 92.7556 107.603 92.7375C108.412 92.7173 108.974 92.0824 109.06 91.3226C109.122 90.7723 108.755 90.083 108.318 89.7545Z" fill="#142216"/>
<path d="M119.636 89.0209C120.068 89.1956 120.517 89.1976 120.983 89.0269C121 89.0204 121.019 89.0187 121.037 89.022C121.055 89.0253 121.072 89.0334 121.086 89.0455C121.099 89.0575 121.109 89.0731 121.115 89.0905C121.12 89.1078 121.121 89.1263 121.116 89.1438C121.03 89.4925 120.886 89.811 120.909 90.1778C120.946 90.7838 120.943 91.4019 120.901 92.0321C120.876 92.3928 121.005 92.7395 121.112 93.0821C121.118 93.1031 121.119 93.1255 121.114 93.1469C121.108 93.1682 121.097 93.1877 121.081 93.2032C121.065 93.2188 121.046 93.2298 121.024 93.2351C121.002 93.2404 120.979 93.2398 120.958 93.2333C120.585 93.1144 120.21 93.066 119.827 93.1728C119.185 93.3542 118.42 93.6304 117.785 93.32C116.528 92.7012 116.057 91.899 116.298 90.5507C116.393 90.0213 116.667 89.6 117.121 89.2869C117.906 88.7468 118.745 88.6581 119.636 89.0209ZM118.686 92.7063C119.081 92.6648 119.441 92.4585 119.688 92.1326C119.935 91.8068 120.048 91.3881 120.003 90.9687C119.98 90.7611 119.919 90.5595 119.824 90.3755C119.728 90.1915 119.599 90.0287 119.445 89.8964C119.291 89.7641 119.114 89.6649 118.925 89.6044C118.736 89.5439 118.538 89.5233 118.343 89.5439C117.948 89.5853 117.588 89.7917 117.341 90.1175C117.094 90.4434 116.981 90.8621 117.026 91.2814C117.049 91.4891 117.11 91.6906 117.206 91.8746C117.301 92.0586 117.43 92.2214 117.584 92.3537C117.738 92.486 117.915 92.5853 118.104 92.6458C118.293 92.7063 118.491 92.7268 118.686 92.7063Z" fill="#142216"/>
<path d="M129.103 88.8978C129.73 88.5935 130.577 88.92 131.03 89.3835C131.24 89.5999 131.483 89.7692 131.758 89.8915C131.836 89.9264 131.875 89.9855 131.877 90.0688C131.881 90.48 131.944 90.9657 131.776 91.3567C131.686 91.5677 131.691 91.7995 131.793 92.0521C131.824 92.1313 131.831 92.2183 131.811 92.3015C131.79 92.3848 131.745 92.4602 131.68 92.5177C131.169 92.9671 130.747 93.4448 130.005 93.469C128.588 93.5153 127.606 92.5217 127.336 91.2459C127.133 90.2804 128.314 89.2828 129.103 88.8978ZM129.064 90.4155L130.405 90.4477C130.467 90.4488 130.528 90.4255 130.573 90.3828C130.619 90.3402 130.645 90.2816 130.647 90.22L130.649 90.1817C130.651 90.0818 130.633 89.9823 130.595 89.889C130.557 89.7957 130.5 89.7104 130.427 89.638C130.354 89.5655 130.267 89.5074 130.17 89.4668C130.073 89.4263 129.969 89.4041 129.863 89.4017L129.654 89.3977C129.441 89.3926 129.235 89.4676 129.081 89.6063C128.927 89.745 128.838 89.936 128.832 90.1373V90.1756C128.832 90.2063 128.837 90.2369 128.848 90.2656C128.859 90.2943 128.876 90.3205 128.898 90.3427C128.919 90.365 128.945 90.3829 128.973 90.3954C129.002 90.4079 129.033 90.4147 129.064 90.4155ZM131.393 91.4958C131.186 91.262 130.936 91.1249 130.61 91.1632C129.939 91.2452 129.285 91.2123 128.648 91.0645C128.302 90.9839 128.209 91.0994 128.369 91.4111L128.83 92.304C128.904 92.448 129.019 92.5677 129.16 92.6486C129.302 92.7294 129.464 92.768 129.628 92.7595C130.464 92.7152 130.79 92.1549 131.372 91.7054C131.388 91.693 131.401 91.6776 131.411 91.6603C131.42 91.6429 131.426 91.6238 131.428 91.6043C131.43 91.5847 131.428 91.565 131.422 91.5464C131.416 91.5277 131.406 91.5105 131.393 91.4958Z" fill="#142216"/>
<path d="M133.658 89.5005C133.588 89.5403 133.536 89.6051 133.512 89.6816C133.489 89.758 133.496 89.8403 133.533 89.9116C133.853 90.5384 134.363 90.8911 134.931 91.2761C135.403 91.5966 135.382 92.2536 135.122 92.6708C134.611 93.4891 133.879 93.7035 132.928 93.3138C132.83 93.2735 132.746 93.2046 132.688 93.1163C132.631 93.028 132.602 92.9246 132.606 92.82L132.613 92.6849C132.625 92.3826 132.779 92.2758 133.074 92.3645L134.054 92.6608C134.113 92.6788 134.176 92.6805 134.236 92.6658C134.296 92.651 134.351 92.6204 134.394 92.5772C134.438 92.5339 134.468 92.4798 134.483 92.4206C134.497 92.3614 134.495 92.2995 134.476 92.2415C134.33 91.788 133.806 91.4998 133.435 91.2177C132.725 90.6795 132.434 89.8209 133.109 89.0994C133.58 88.5955 134.794 88.6378 135.032 89.3815C135.098 89.5871 135.139 89.7954 135.152 90.0063C135.166 90.2119 135.111 90.2321 134.988 90.0668C134.742 89.7403 134.099 89.2505 133.658 89.5005Z" fill="#142216"/>
<path d="M76.7978 93.406C76.1981 93.4627 75.5994 93.2762 75.1334 92.8874C74.6674 92.4987 74.3722 91.9395 74.3128 91.3329C74.2834 91.0326 74.3128 90.7296 74.3992 90.4414C74.4857 90.1531 74.6275 89.8853 74.8167 89.653C75.0058 89.4207 75.2386 89.2287 75.5016 89.0878C75.7647 88.9469 76.0529 88.8599 76.3498 88.8318C76.9494 88.775 77.5481 88.9615 78.0141 89.3503C78.4801 89.7391 78.7753 90.2983 78.8347 90.9048C78.8641 91.2052 78.8348 91.5081 78.7483 91.7964C78.6619 92.0846 78.52 92.3525 78.3309 92.5847C78.1417 92.817 77.909 93.0091 77.6459 93.15C77.3829 93.2909 77.0947 93.3779 76.7978 93.406ZM76.7084 92.7501C76.8959 92.735 77.0782 92.679 77.2448 92.5853C77.4114 92.4916 77.5591 92.3622 77.6794 92.2043C77.7997 92.0464 77.8903 91.8632 77.946 91.6651C78.0017 91.467 78.0214 91.2579 78.004 91.0498C77.9688 90.6294 77.7846 90.2385 77.4919 89.9629C77.1993 89.6873 76.8221 89.5497 76.4433 89.5803C76.2557 89.5955 76.0735 89.6515 75.9069 89.7452C75.7402 89.8388 75.5926 89.9683 75.4723 90.1262C75.352 90.2841 75.2614 90.4673 75.2057 90.6654C75.15 90.8635 75.1303 91.0725 75.1477 91.2807C75.1828 91.701 75.367 92.092 75.6597 92.3675C75.9524 92.6431 76.3296 92.7807 76.7084 92.7501Z" fill="#142216"/>
</svg>
