<svg width="18" height="18" viewBox="0 0 18 18" fill="none" xmlns="http://www.w3.org/2000/svg">
<path d="M10.1189 1.21375L16.4286 6.19044V15.8211H17.4286V5.70556L10.7382 0.428589L10.1189 1.21375Z" fill="#142216"/>
<path d="M4.71429 9.42859V8.14287H10.7143V9.42859H4.71429Z" fill="#142216"/>
<path fill-rule="evenodd" clip-rule="evenodd" d="M7.92857 0.681327L15.4286 6.66872V17.8211H0.428574V6.66872L7.92857 0.681327ZM11.1429 7.28573H4.28572C4.17205 7.28573 4.06304 7.33088 3.98267 7.41126C3.9023 7.49163 3.85715 7.60064 3.85715 7.7143V9.85716C3.85715 9.97083 3.9023 10.0798 3.98267 10.1602C4.06304 10.2406 4.17205 10.2857 4.28572 10.2857H11.1429C11.2565 10.2857 11.3655 10.2406 11.4459 10.1602C11.5263 10.0798 11.5714 9.97083 11.5714 9.85716V7.7143C11.5714 7.60064 11.5263 7.49163 11.4459 7.41126C11.3655 7.33088 11.2565 7.28573 11.1429 7.28573ZM7.71429 11.1429H5.14286V10.7143H4.28572V11.5714C4.28572 11.6851 4.33087 11.7941 4.41124 11.8745C4.49161 11.9549 4.60062 12 4.71429 12H7.28572V12.8572H6.85715V15.4286H8.57143V12.8572H8.14286V11.5714C8.14286 11.4578 8.09771 11.3488 8.01733 11.2684C7.93696 11.188 7.82795 11.1429 7.71429 11.1429ZM10.9286 11.1274L10.1709 11.8852C10.021 12.035 9.91903 12.2259 9.87771 12.4338C9.83639 12.6416 9.85763 12.857 9.93873 13.0528C10.0198 13.2485 10.1572 13.4158 10.3333 13.5336C10.5095 13.6513 10.7167 13.7141 10.9286 13.7141C11.1405 13.7141 11.3476 13.6513 11.5238 13.5336C11.7 13.4158 11.8373 13.2485 11.9184 13.0528C11.9995 12.857 12.0208 12.6416 11.9794 12.4338C11.9381 12.2259 11.8361 12.035 11.6863 11.8852L10.9286 11.1274Z" fill="#142216"/>
</svg>
