<svg width="20" height="14" viewBox="0 0 20 14" fill="none" xmlns="http://www.w3.org/2000/svg">
<path fill-rule="evenodd" clip-rule="evenodd" d="M14.9626 6.75744L17.0469 14.0001H19.933L16.4316 3.78168L14.9626 6.75744ZM16.3821 5.99105L18.5 13.0569H17.661L15.9886 6.78798L16.3821 5.99105Z" fill="#142216"/>
<path fill-rule="evenodd" clip-rule="evenodd" d="M3.36931 7.49323L0 14.0001H10.4636L16.0511 3.00002H13.6093C13.6118 2.93289 13.6131 2.86558 13.6131 2.79811C13.6131 2.26731 13.3343 1.7766 12.8811 1.50996L11.2893 0.573387C10.7109 0.233025 9.9966 0.233025 9.41813 0.573386L7.82635 1.50996C7.37319 1.7766 7.09433 2.2673 7.09433 2.79809C7.09433 2.86557 7.09559 2.93289 7.09811 3.00002H5.58752L4.88908 4.41478H3.36931V7.49323ZM10.8215 1.38892L12.4133 2.3255C12.5796 2.42332 12.6819 2.60336 12.6819 2.7981C12.6819 2.86561 12.6803 2.93293 12.6773 3.00002C12.6626 3.3215 12.6131 3.63757 12.5312 3.94315C12.2894 4.84551 11.7651 5.65633 11.0217 6.24431L10.3535 6.77277L9.68538 6.24431C8.94201 5.65634 8.4178 4.84553 8.17601 3.94319C8.09412 3.6376 8.04483 3.32151 8.03018 3.00002C8.02712 2.93293 8.02558 2.86561 8.02558 2.7981C8.02558 2.60336 8.12789 2.42333 8.29415 2.3255L9.88593 1.38892C10.1752 1.21874 10.5323 1.21874 10.8215 1.38892Z" fill="#142216"/>
</svg>
