<svg width="63" height="65" viewBox="0 0 63 65" fill="none" xmlns="http://www.w3.org/2000/svg">
<path d="M36.1027 3.45034L59.2381 21.6982V57.0107H62.9048V19.9203L38.3735 0.571411L36.1027 3.45034Z" fill="white"/>
<path d="M16.2857 33.5714V28.8571H38.2857V33.5714H16.2857Z" fill="white"/>
<path fill-rule="evenodd" clip-rule="evenodd" d="M28.0714 1.49812L55.5714 23.4519V64.344H0.571411V23.4519L28.0714 1.49812ZM39.8571 25.7143H14.7143C14.2975 25.7143 13.8978 25.8798 13.6031 26.1745C13.3084 26.4692 13.1428 26.8689 13.1428 27.2857V35.1428C13.1428 35.5596 13.3084 35.9593 13.6031 36.254C13.8978 36.5487 14.2975 36.7143 14.7143 36.7143H39.8571C40.2739 36.7143 40.6736 36.5487 40.9683 36.254C41.263 35.9593 41.4286 35.5596 41.4286 35.1428V27.2857C41.4286 26.8689 41.263 26.4692 40.9683 26.1745C40.6736 25.8798 40.2739 25.7143 39.8571 25.7143ZM27.2857 39.8571H17.8571V38.2857H14.7143V41.4286C14.7143 41.8453 14.8798 42.245 15.1745 42.5397C15.4692 42.8344 15.8689 43 16.2857 43H25.7143V46.1428H24.1428V55.5714H30.4286V46.1428H28.8571V41.4286C28.8571 41.0118 28.6916 40.6121 28.3969 40.3174C28.1022 40.0227 27.7025 39.8571 27.2857 39.8571ZM39.0714 39.8006L36.2931 42.5788C35.7438 43.1283 35.3698 43.8283 35.2183 44.5904C35.0668 45.3524 35.1446 46.1422 35.442 46.86C35.7394 47.5778 36.2429 48.1913 36.8889 48.623C37.535 49.0546 38.2945 49.285 39.0714 49.285C39.8484 49.285 40.6079 49.0546 41.2539 48.623C41.8999 48.1913 42.4035 47.5778 42.7008 46.86C42.9982 46.1422 43.0761 45.3524 42.9246 44.5904C42.7731 43.8283 42.399 43.1283 41.8497 42.5788L39.0714 39.8006Z" fill="white"/>
</svg>
