<svg width="40" height="41" viewBox="0 0 40 41" fill="none" xmlns="http://www.w3.org/2000/svg">
<path d="M22.6108 1.83204L37.3333 13.4443V35.9159H39.6667V12.3129L24.0559 0L22.6108 1.83204Z" fill="#207C1F"/>
<path d="M10 21V18H24V21H10Z" fill="#207C1F"/>
<path fill-rule="evenodd" clip-rule="evenodd" d="M17.5 0.589722L35 14.5603V40.5826H0V14.5603L17.5 0.589722ZM25 16H9C8.73478 16 8.48043 16.1054 8.29289 16.2929C8.10536 16.4804 8 16.7348 8 17V22C8 22.2652 8.10536 22.5196 8.29289 22.7071C8.48043 22.8946 8.73478 23 9 23H25C25.2652 23 25.5196 22.8946 25.7071 22.7071C25.8946 22.5196 26 22.2652 26 22V17C26 16.7348 25.8946 16.4804 25.7071 16.2929C25.5196 16.1054 25.2652 16 25 16ZM17 25H11V24H9V26C9 26.2652 9.10536 26.5196 9.29289 26.7071C9.48043 26.8946 9.73478 27 10 27H16V29H15V35H19V29H18V26C18 25.7348 17.8946 25.4804 17.7071 25.2929C17.5196 25.1054 17.2652 25 17 25ZM24.5 24.964L22.732 26.732C22.3824 27.0817 22.1444 27.5271 22.048 28.0121C21.9516 28.497 22.0011 28.9996 22.1904 29.4564C22.3796 29.9132 22.7 30.3036 23.1111 30.5783C23.5223 30.8529 24.0056 30.9995 24.5 30.9995C24.9944 30.9995 25.4777 30.8529 25.8889 30.5783C26.3 30.3036 26.6204 29.9132 26.8096 29.4564C26.9989 28.9996 27.0484 28.497 26.952 28.0121C26.8556 27.5271 26.6176 27.0817 26.268 26.732L24.5 24.964Z" fill="#207C1F"/>
</svg>
