<svg width="48" height="33" viewBox="0 0 48 33" fill="none" xmlns="http://www.w3.org/2000/svg">
<path fill-rule="evenodd" clip-rule="evenodd" d="M35.5793 15.4339L40.4429 32.3333H47.177L39.0072 8.49047L35.5793 15.4339ZM38.8915 13.6457L43.8334 30.1326H41.8757L37.9735 15.5052L38.8915 13.6457Z" fill="#207C1F"/>
<path fill-rule="evenodd" clip-rule="evenodd" d="M8.5284 17.1507L0.666687 32.3333H25.0818L38.1194 6.66659H32.4218C32.4277 6.50996 32.4306 6.35289 32.4306 6.19546C32.4306 4.95693 31.78 3.81195 30.7226 3.18979L27.0084 1.00445C25.6587 0.21027 23.9921 0.210268 22.6423 1.00444L18.9282 3.18979C17.8708 3.81194 17.2201 4.95691 17.2201 6.19543C17.2201 6.35287 17.2231 6.50995 17.2289 6.66659H13.7042L12.0745 9.9677H8.5284V17.1507ZM25.9169 2.90737L29.631 5.09271C30.019 5.32097 30.2577 5.74105 30.2577 6.19545C30.2577 6.35297 30.2541 6.51006 30.247 6.66659C30.2128 7.4167 30.0973 8.15421 29.9062 8.86723C29.342 10.9727 28.1185 12.8646 26.3839 14.2366L24.8249 15.4697L23.2659 14.2366C21.5314 12.8647 20.3082 10.9728 19.744 8.86733C19.553 8.15428 19.438 7.41674 19.4038 6.66659C19.3966 6.51005 19.393 6.35296 19.393 6.19544C19.393 5.74104 19.6318 5.32097 20.0197 5.09271L23.7339 2.90736C24.4087 2.51028 25.242 2.51028 25.9169 2.90737Z" fill="#207C1F"/>
</svg>
